<svg version="1.1" viewBox="0.0 0.0 702.3280839895014 322.7742782152231" fill="none" stroke="none" stroke-linecap="square" stroke-miterlimit="10" xmlns:xlink="http://www.w3.org/1999/xlink" xmlns="http://www.w3.org/2000/svg"><clipPath id="p.0"><path d="m0 0l702.32806 0l0 322.7743l-702.32806 0l0 -322.7743z" clip-rule="nonzero"/></clipPath><g clip-path="url(#p.0)"><path fill="#000000" fill-opacity="0.0" d="m0 0l702.32806 0l0 322.7743l-702.32806 0z" fill-rule="evenodd"/><path fill="#ffffff" d="m-2.7454068E-4 0.9790026l702.3307 0l0 320.8189l-702.3307 0z" fill-rule="evenodd"/><path fill="#000000" fill-opacity="0.0" d="m265.8517 162.58398l0 0c0 -46.070114 37.3472 -83.41732 83.41733 -83.41732l0 0c22.123627 0 43.341156 8.7885895 58.984955 24.432365c15.643768 15.643784 24.432343 36.861313 24.432343 58.984955l0 0c0 46.070114 -37.3472 83.41733 -83.4173 83.41733l0 0c-46.07013 0 -83.41733 -37.347214 -83.41733 -83.41733z" fill-rule="evenodd"/><path stroke="#000000" stroke-width="2.0" stroke-linejoin="round" stroke-linecap="butt" d="m265.8517 162.58398l0 0c0 -46.070114 37.3472 -83.41732 83.41733 -83.41732l0 0c22.123627 0 43.341156 8.7885895 58.984955 24.432365c15.643768 15.643784 24.432343 36.861313 24.432343 58.984955l0 0c0 46.070114 -37.3472 83.41733 -83.4173 83.41733l0 0c-46.07013 0 -83.41733 -37.347214 -83.41733 -83.41733z" fill-rule="evenodd"/><path fill="#000000" fill-opacity="0.0" d="m230.92258 162.5836l0 0c0 -65.36094 52.985504 -118.34645 118.346466 -118.34645l0 0c31.38742 0 61.48929 12.468609 83.68356 34.662872c22.194275 22.194267 34.662872 52.296158 34.662872 83.68358l0 0c0 65.36095 -52.985504 118.34645 -118.346436 118.34645l0 0c-65.36096 0 -118.346466 -52.985504 -118.346466 -118.34645z" fill-rule="evenodd"/><path stroke="#000000" stroke-width="2.0" stroke-linejoin="round" stroke-linecap="butt" d="m230.92258 162.5836l0 0c0 -65.36094 52.985504 -118.34645 118.346466 -118.34645l0 0c31.38742 0 61.48929 12.468609 83.68356 34.662872c22.194275 22.194267 34.662872 52.296158 34.662872 83.68358l0 0c0 65.36095 -52.985504 118.34645 -118.346436 118.34645l0 0c-65.36096 0 -118.346466 -52.985504 -118.346466 -118.34645z" fill-rule="evenodd"/><path fill="#000000" fill-opacity="0.0" d="m195.66273 162.5841l0 0c0 -84.83442 68.771866 -153.6063 153.60631 -153.6063l0 0c40.738922 0 79.809265 16.183475 108.61603 44.990242c28.806793 28.80677 44.990265 67.87714 44.990265 108.61606l0 0c0 84.83441 -68.77188 153.6063 -153.6063 153.6063l0 0c-84.83444 0 -153.60631 -68.77188 -153.60631 -153.6063z" fill-rule="evenodd"/><path stroke="#000000" stroke-width="2.0" stroke-linejoin="round" stroke-linecap="butt" d="m195.66273 162.5841l0 0c0 -84.83442 68.771866 -153.6063 153.60631 -153.6063l0 0c40.738922 0 79.809265 16.183475 108.61603 44.990242c28.806793 28.80677 44.990265 67.87714 44.990265 108.61606l0 0c0 84.83441 -68.77188 153.6063 -153.6063 153.6063l0 0c-84.83444 0 -153.60631 -68.77188 -153.60631 -153.6063z" fill-rule="evenodd"/><path fill="#000000" fill-opacity="0.0" d="m303.77298 162.58267l0 0c0 -25.12677 20.369263 -45.496056 45.496063 -45.496056l0 0c12.066284 0 23.638397 4.7933197 32.170563 13.325493c8.532166 8.532166 13.3255005 20.104263 13.3255005 32.170563l0 0c0 25.126785 -20.369293 45.496063 -45.496063 45.496063l0 0c-25.1268 0 -45.496063 -20.369278 -45.496063 -45.496063z" fill-rule="evenodd"/><path stroke="#000000" stroke-width="2.0" stroke-linejoin="round" stroke-linecap="butt" d="m303.77298 162.58267l0 0c0 -25.12677 20.369263 -45.496056 45.496063 -45.496056l0 0c12.066284 0 23.638397 4.7933197 32.170563 13.325493c8.532166 8.532166 13.3255005 20.104263 13.3255005 32.170563l0 0c0 25.126785 -20.369293 45.496063 -45.496063 45.496063l0 0c-25.1268 0 -45.496063 -20.369278 -45.496063 -45.496063z" fill-rule="evenodd"/><path fill="#000000" fill-opacity="0.0" d="m306.86987 129.85826l84.59842 0l0 65.44882l-84.59842 0z" fill-rule="evenodd"/><path fill="#000000" d="m332.67834 145.19017l0 10.046875q0 1.578125 -1.0 2.578125q-0.984375 1.0 -2.921875 1.0q-1.796875 0 -2.84375 -0.9375q-1.046875 -0.953125 -1.046875 -3.296875l0 -0.453125l1.78125 0l0 0.40625q0 1.640625 0.53125 2.21875q0.53125 0.578125 1.609375 0.578125q1.09375 0 1.609375 -0.578125q0.515625 -0.578125 0.515625 -1.75l0 -9.8125l1.765625 0zm7.40213 -0.328125q2.21875 0 3.515625 1.078125q1.3125 1.078125 1.390625 3.140625l-1.671875 0q-0.15625 -1.359375 -1.0 -2.03125q-0.828125 -0.6875 -2.3125 -0.6875q-1.421875 0 -2.203125 0.59375q-0.78125 0.578125 -0.78125 1.671875q0 0.78125 0.65625 1.28125q0.671875 0.5 3.625 1.09375q2.125 0.4375 3.171875 1.34375q1.0625 0.90625 1.0625 2.5q0 1.859375 -1.515625 2.921875q-1.515625 1.046875 -3.6875 1.046875q-2.421875 0 -3.953125 -1.203125q-1.53125 -1.21875 -1.546875 -3.484375l1.6875 0q0.015625 1.515625 1.078125 2.359375q1.078125 0.84375 2.796875 0.84375q1.609375 0 2.484375 -0.625q0.890625 -0.625 0.890625 -1.796875q0 -0.953125 -0.8125 -1.515625q-0.8125 -0.578125 -2.9375 -1.0q-2.84375 -0.53125 -3.8125 -1.375q-0.953125 -0.859375 -0.953125 -2.25q0 -1.796875 1.359375 -2.84375q1.359375 -1.0625 3.46875 -1.0625zm13.244568 0q1.9375 0 3.375 0.90625q1.4375 0.890625 2.21875 2.515625q0.78125 1.625 0.78125 3.5625q0 1.953125 -0.78125 3.578125q-0.765625 1.609375 -2.21875 2.5q-1.453125 0.890625 -3.375 0.890625q-1.921875 0 -3.375 -0.890625q-1.4375 -0.890625 -2.234375 -2.5q-0.78125 -1.625 -0.78125 -3.578125q0 -3.03125 1.734375 -5.0q1.75 -1.984375 4.65625 -1.984375zm-4.609375 6.984375q0 1.484375 0.53125 2.765625q0.546875 1.28125 1.59375 2.0q1.0625 0.71875 2.484375 0.71875q2.140625 0 3.375 -1.546875q1.234375 -1.546875 1.234375 -3.9375q0 -2.375 -1.234375 -3.921875q-1.21875 -1.5625 -3.40625 -1.5625q-2.140625 0 -3.359375 1.5625q-1.21875 1.5625 -1.21875 3.921875zm15.018127 -6.65625l7.015625 10.796875l0.03125 0l0 -10.796875l1.671875 0l0 13.3125l-1.9375 0l-6.953125 -10.6875l-0.046875 0l0 10.6875l-1.671875 0l0 -13.3125l1.890625 0z" fill-rule="nonzero"/><path fill="#000000" d="m328.61194 170.6433q2.1875 0 3.421875 1.40625q1.25 1.40625 1.25 3.640625q0 2.25 -1.28125 3.65625q-1.265625 1.390625 -3.390625 1.390625q-2.09375 0 -3.390625 -1.375q-1.296875 -1.375 -1.296875 -3.671875q0 -2.296875 1.265625 -3.671875q1.265625 -1.375 3.421875 -1.375zm-3.015625 5.046875q0 1.65625 0.84375 2.65625q0.859375 0.984375 2.171875 0.984375q1.296875 0 2.140625 -0.984375q0.859375 -1.0 0.859375 -2.65625q0 -1.640625 -0.84375 -2.640625q-0.84375 -1.015625 -2.171875 -1.015625q-1.28125 0 -2.140625 0.984375q-0.859375 0.984375 -0.859375 2.671875zm11.197144 -8.5l0 4.984375l0.046875 0q0.375 -0.75 1.171875 -1.140625q0.796875 -0.390625 1.90625 -0.390625q2.0625 0 3.25 1.421875q1.1875 1.421875 1.1875 3.640625q0 2.25 -1.1875 3.640625q-1.171875 1.390625 -3.203125 1.390625q-0.90625 0 -1.765625 -0.375q-0.859375 -0.375 -1.359375 -1.140625l-0.046875 0l0 1.28125l-1.578125 0l0 -13.3125l1.578125 0zm-0.046875 8.484375q0 1.671875 0.8125 2.671875q0.8125 0.984375 2.234375 0.984375q1.375 0 2.125 -0.984375q0.75 -0.984375 0.75 -2.75q0 -1.546875 -0.796875 -2.546875q-0.796875 -1.015625 -2.1875 -1.015625q-1.40625 0 -2.171875 1.015625q-0.765625 1.015625 -0.765625 2.625zm11.152679 -8.484375l0 1.9375l-1.59375 0l0 -1.9375l1.59375 0zm0 3.671875l0 10.9375q0 1.125 -0.578125 1.765625q-0.578125 0.640625 -1.734375 0.640625q-0.21875 0 -0.421875 -0.03125q-0.203125 -0.015625 -0.40625 -0.0625l0 -1.34375q0.125 0.015625 0.265625 0.015625q0.125 0.015625 0.25 0.015625q0.484375 -0.015625 0.640625 -0.109375q0.171875 -0.09375 0.28125 -0.328125q0.109375 -0.234375 0.109375 -0.8125l0 -10.6875l1.59375 0zm6.4729614 -0.21875q2.078125 0 3.21875 1.5q1.15625 1.484375 1.15625 3.828125l0 0.1875l-7.234375 0l0 0.109375q0 1.390625 0.796875 2.234375q0.8125 0.828125 2.21875 0.828125q1.046875 0 1.671875 -0.484375q0.625 -0.5 0.828125 -1.40625l1.5625 0q-0.328125 1.609375 -1.40625 2.453125q-1.078125 0.84375 -2.71875 0.84375q-1.515625 0 -2.578125 -0.6875q-1.046875 -0.6875 -1.546875 -1.90625q-0.5 -1.234375 -0.5 -2.515625q0 -2.140625 1.28125 -3.5625q1.296875 -1.421875 3.25 -1.421875zm-2.859375 4.109375l5.546875 0q-0.078125 -1.171875 -0.859375 -1.9375q-0.765625 -0.78125 -1.9375 -0.78125q-1.09375 0 -1.875 0.734375q-0.765625 0.734375 -0.875 1.984375zm12.895447 -4.109375q1.765625 0 2.859375 0.84375q1.109375 0.828125 1.296875 2.46875l-1.625 0q-0.203125 -0.9375 -0.828125 -1.421875q-0.625 -0.5 -1.5625 -0.5q-1.484375 0 -2.25 0.984375q-0.765625 0.984375 -0.765625 2.78125q0 1.609375 0.75 2.578125q0.765625 0.953125 2.078125 0.953125q1.15625 0 1.8125 -0.625q0.671875 -0.625 0.828125 -1.734375l1.625 0q-0.265625 1.8125 -1.359375 2.796875q-1.09375 0.96875 -2.890625 0.96875q-2.109375 0 -3.3125 -1.328125q-1.203125 -1.328125 -1.203125 -3.609375q0 -2.359375 1.21875 -3.75q1.21875 -1.40625 3.328125 -1.40625zm8.192322 -2.671875l0 2.890625l1.921875 0l0 1.390625l-1.921875 0l0 6.046875q0 0.71875 0.484375 0.765625q0.484375 0.03125 1.0 0.03125l0.4375 0l0 1.40625l-1.296875 0q-1.3125 0 -1.765625 -0.453125q-0.4375 -0.46875 -0.4375 -1.5625l0 -6.234375l-1.65625 0l0 -1.390625l1.65625 0l0 -2.890625l1.578125 0z" fill-rule="nonzero"/><path fill="#000000" fill-opacity="0.0" d="m306.96982 87.166664l84.59842 0l0 31.46457l-84.59842 0z" fill-rule="evenodd"/><path fill="#000000" d="m324.99875 96.50645l0 10.046875q0 1.578125 -1.0 2.578125q-0.984375 1.0 -2.921875 1.0q-1.796875 0 -2.84375 -0.9375q-1.046875 -0.953125 -1.046875 -3.296875l0 -0.453125l1.78125 0l0 0.40625q0 1.640625 0.53125 2.21875q0.53125 0.578125 1.609375 0.578125q1.09375 0 1.609375 -0.578125q0.515625 -0.578125 0.515625 -1.75l0 -9.8125l1.765625 0zm3.4959106 0l2.609375 11.078125l0.046875 0l2.984375 -11.078125l1.921875 0l2.9375 11.078125l0.046875 0l2.703125 -11.078125l1.765625 0l-3.5625 13.3125l-1.84375 0l-3.046875 -11.203125l-0.03125 0l-3.078125 11.203125l-1.84375 0l-3.40625 -13.3125l1.796875 0zm21.177856 -0.328125q2.21875 0 3.515625 1.078125q1.3125 1.078125 1.390625 3.140625l-1.671875 0q-0.15625 -1.359375 -1.0 -2.03125q-0.828125 -0.6875 -2.3125 -0.6875q-1.421875 0 -2.203125 0.59375q-0.78125 0.578125 -0.78125 1.671875q0 0.78125 0.65625 1.28125q0.671875 0.5 3.625 1.09375q2.125 0.4375 3.171875 1.34375q1.0625 0.90625 1.0625 2.5q0 1.859375 -1.515625 2.921875q-1.515625 1.046875 -3.6875 1.046875q-2.421875 0 -3.953125 -1.203125q-1.53125 -1.21875 -1.546875 -3.484375l1.6875 0q0.015625 1.515625 1.078125 2.359375q1.078125 0.84375 2.796875 0.84375q1.609375 0 2.484375 -0.625q0.890625 -0.625 0.890625 -1.796875q0 -0.953125 -0.8125 -1.515625q-0.8125 -0.578125 -2.9375 -1.0q-2.84375 -0.53125 -3.8125 -1.375q-0.953125 -0.859375 -0.953125 -2.25q0 -1.796875 1.359375 -2.84375q1.359375 -1.0625 3.46875 -1.0625zm16.349731 0.640625l-0.53125 3.8125l2.296875 0l0.546875 -3.75l0.015625 -0.0625l1.28125 0l-0.546875 3.8125l1.65625 0l0 1.28125l-1.828125 0l-0.390625 2.796875l1.703125 0l0 1.265625l-1.890625 0l-0.546875 3.828125l-1.28125 0l0.546875 -3.828125l-2.3125 0l-0.546875 3.828125l-1.28125 0l0.53125 -3.828125l-1.796875 0l0 -1.265625l1.984375 0l0.40625 -2.796875l-1.90625 0l0 -1.28125l2.0625 0l0.53125 -3.75l0.03125 -0.0625l1.265625 0zm-1.09375 7.890625l2.3125 0l0.390625 -2.796875l-2.3125 0l-0.390625 2.796875zm13.094452 -8.125l0 13.234375l-1.578125 0l0 -9.46875l-3.4375 0l0 -1.28125l0.046875 0q1.6875 0 2.59375 -0.59375q0.921875 -0.609375 1.15625 -1.890625l1.21875 0z" fill-rule="nonzero"/><path fill="#000000" fill-opacity="0.0" d="m306.8701 12.772965l84.59842 0l0 31.46457l-84.59842 0z" fill-rule="evenodd"/><path fill="#000000" d="m324.89902 22.11275l0 10.046873q0 1.578125 -1.0 2.578125q-0.984375 1.0 -2.921875 1.0q-1.796875 0 -2.84375 -0.9375q-1.046875 -0.953125 -1.046875 -3.296873l0 -0.453125l1.78125 0l0 0.40625q0 1.6406231 0.53125 2.218748q0.53125 0.578125 1.609375 0.578125q1.09375 0 1.609375 -0.578125q0.515625 -0.578125 0.515625 -1.7499981l0 -9.8125l1.765625 0zm3.4959106 0l2.609375 11.078123l0.046875 0l2.984375 -11.078123l1.921875 0l2.9375 11.078123l0.046875 0l2.703125 -11.078123l1.765625 0l-3.5625 13.312498l-1.84375 0l-3.046875 -11.203123l-0.03125 0l-3.078125 11.203123l-1.84375 0l-3.40625 -13.312498l1.796875 0zm21.177856 -0.328125q2.21875 0 3.515625 1.078125q1.3125 1.078125 1.390625 3.140625l-1.671875 0q-0.15625 -1.359375 -1.0 -2.03125q-0.828125 -0.6875 -2.3125 -0.6875q-1.421875 0 -2.203125 0.59375q-0.78125 0.578125 -0.78125 1.671875q0 0.78125 0.65625 1.28125q0.671875 0.5 3.625 1.09375q2.125 0.4375 3.171875 1.34375q1.0625 0.90625 1.0625 2.5q0 1.8593731 -1.515625 2.921873q-1.515625 1.046875 -3.6875 1.046875q-2.421875 0 -3.953125 -1.203125q-1.53125 -1.21875 -1.546875 -3.484373l1.6875 0q0.015625 1.5156231 1.078125 2.359373q1.078125 0.84375 2.796875 0.84375q1.609375 0 2.484375 -0.625q0.890625 -0.625 0.890625 -1.7968731q0 -0.953125 -0.8125 -1.515625q-0.8125 -0.578125 -2.9375 -1.0q-2.84375 -0.53125 -3.8125 -1.375q-0.953125 -0.859375 -0.953125 -2.25q0 -1.796875 1.359375 -2.84375q1.359375 -1.0625 3.46875 -1.0625zm16.349731 0.640625l-0.53125 3.8125l2.296875 0l0.546875 -3.75l0.015625 -0.0625l1.28125 0l-0.546875 3.8125l1.65625 0l0 1.28125l-1.828125 0l-0.390625 2.796875l1.703125 0l0 1.265625l-1.890625 0l-0.546875 3.828123l-1.28125 0l0.546875 -3.828123l-2.3125 0l-0.546875 3.828123l-1.28125 0l0.53125 -3.828123l-1.796875 0l0 -1.265625l1.984375 0l0.40625 -2.796875l-1.90625 0l0 -1.28125l2.0625 0l0.53125 -3.75l0.03125 -0.0625l1.265625 0zm-1.09375 7.890625l2.3125 0l0.390625 -2.796875l-2.3125 0l-0.390625 2.796875zm11.531952 -8.125q1.828125 0 2.984375 1.046875q1.15625 1.03125 1.15625 2.765625q0 1.375 -0.765625 2.484375q-0.765625 1.09375 -3.25 2.515625q-1.5 0.875 -2.140625 1.5781231q-0.625 0.6875 -0.765625 1.4375l6.78125 0l0 1.40625l-8.625 0q0.125 -1.65625 0.84375 -2.890625q0.71875 -1.2343731 2.671875 -2.406248q2.3125 -1.40625 2.9375 -2.203125q0.625 -0.8125 0.625 -1.921875q0 -1.046875 -0.734375 -1.71875q-0.71875 -0.6875 -1.8125 -0.6875q-1.1875 0 -1.890625 0.890625q-0.6875 0.890625 -0.6875 2.265625l0 0.125l-1.59375 0l0 -0.328125q0 -1.96875 1.15625 -3.15625q1.171875 -1.203125 3.109375 -1.203125z" fill-rule="nonzero"/><path fill="#000000" fill-opacity="0.0" d="m306.8701 47.7021l84.59842 0l0 31.464565l-84.59842 0z" fill-rule="evenodd"/><path fill="#000000" d="m338.21255 57.04188l0 10.046879q0 1.578125 -1.0 2.578125q-0.984375 1.0 -2.921875 1.0q-1.796875 0 -2.84375 -0.9375q-1.046875 -0.953125 -1.046875 -3.296875l0 -0.453125l1.78125 0l0 0.40625q0 1.640625 0.53125 2.21875q0.53125 0.578125 1.609375 0.578125q1.09375 0 1.609375 -0.578125q0.515625 -0.578125 0.515625 -1.75l0 -9.812504l1.765625 0zm3.4958801 0l2.609375 11.078129l0.046875 0l2.984375 -11.078129l1.921875 0l2.9375 11.078129l0.046875 0l2.703125 -11.078129l1.765625 0l-3.5625 13.312504l-1.84375 0l-3.046875 -11.203129l-0.03125 0l-3.078125 11.203129l-1.84375 0l-3.40625 -13.312504l1.796875 0zm25.896606 0l0 1.484375l-7.4375 0l0 4.234375l6.921875 0l0 1.4843788l-6.921875 0l0 4.609375l7.5 0l0 1.5l-9.265625 0l0 -13.312504l9.203125 0z" fill-rule="nonzero"/></g></svg>