<svg version="1.1" viewBox="0.0 0.0 697.9527559055118 230.91863517060366" fill="none" stroke="none" stroke-linecap="square" stroke-miterlimit="10" xmlns:xlink="http://www.w3.org/1999/xlink" xmlns="http://www.w3.org/2000/svg"><clipPath id="p.0"><path d="m0 0l697.95276 0l0 230.91864l-697.95276 0l0 -230.91864z" clip-rule="nonzero"/></clipPath><g clip-path="url(#p.0)"><path fill="#ffffff" d="m0 0l697.95276 0l0 230.91864l-697.95276 0z" fill-rule="evenodd"/><path fill="#000000" fill-opacity="0.0" d="m1.1288234 180.90814l245.85826 0l0 48.818893l-245.85826 0z" fill-rule="evenodd"/><path stroke="#000000" stroke-width="2.0" stroke-linejoin="round" stroke-linecap="butt" d="m1.1288234 180.90814l245.85826 0l0 48.818893l-245.85826 0z" fill-rule="evenodd"/><path fill="#000000" fill-opacity="0.0" d="m24.089512 19.569553l199.93701 0l0 55.62205l-199.93701 0z" fill-rule="evenodd"/><path stroke="#000000" stroke-width="2.0" stroke-linejoin="round" stroke-linecap="butt" d="m24.089512 19.569553l199.93701 0l0 55.62205l-199.93701 0z" fill-rule="evenodd"/><path fill="#000000" fill-opacity="0.0" d="m1.1288234 1.128609l245.85826 0l0 179.77953l-245.85826 0z" fill-rule="evenodd"/><path stroke="#000000" stroke-width="2.0" stroke-linejoin="round" stroke-linecap="butt" d="m1.1288234 1.128609l245.85826 0l0 179.77953l-245.85826 0z" fill-rule="evenodd"/><path fill="#000000" fill-opacity="0.0" d="m24.089512 74.924545l199.93701 0l0 55.62204l-199.93701 0z" fill-rule="evenodd"/><path stroke="#000000" stroke-width="2.0" stroke-linejoin="round" stroke-linecap="butt" d="m24.089512 74.924545l199.93701 0l0 55.62204l-199.93701 0z" fill-rule="evenodd"/><path fill="#000000" fill-opacity="0.0" d="m39.12861 31.648294l169.85828 0l0 31.464567l-169.85828 0z" fill-rule="evenodd"/><path fill="#000000" d="m51.680626 40.988075l3.984375 6.328125l3.890625 -6.328125l2.015625 0l-5.09375 7.859375l0 5.453125l-1.765625 0l0 -5.453125l-5.15625 -7.859375l2.125 0zm13.350021 3.453125q2.1875 0 3.421875 1.40625q1.25 1.40625 1.25 3.640625q0 2.25 -1.28125 3.65625q-1.265625 1.390625 -3.390625 1.390625q-2.09375 0 -3.390625 -1.375q-1.296875 -1.375 -1.296875 -3.671875q0 -2.296875 1.265625 -3.671875q1.265625 -1.375 3.421875 -1.375zm-3.015625 5.046875q0 1.65625 0.84375 2.65625q0.859375 0.984375 2.171875 0.984375q1.296875 0 2.140625 -0.984375q0.859375 -1.0 0.859375 -2.65625q0 -1.640625 -0.84375 -2.640625q-0.84375 -1.015625 -2.171875 -1.015625q-1.28125 0 -2.140625 0.984375q-0.859375 0.984375 -0.859375 2.671875zm11.150269 -4.828125l0 6.578125q0 0.8125 0.515625 1.359375q0.53125 0.53125 1.453125 0.53125q1.359375 0 2.09375 -0.828125q0.75 -0.84375 0.75 -2.140625l0 -5.5l1.59375 0l0 9.640625l-1.5 0l0 -1.53125l-0.03125 0q-0.53125 0.921875 -1.328125 1.34375q-0.796875 0.421875 -1.8125 0.421875q-1.6875 0 -2.515625 -0.875q-0.8125 -0.875 -0.8125 -2.578125l0 -6.421875l1.59375 0zm13.594467 -0.234375q0.046875 0 0.09375 0q0.046875 0 0.125 0.015625l0 1.671875q-1.796875 0 -2.65625 0.953125q-0.84375 0.9375 -0.84375 2.921875l0 4.3125l-1.578125 0l0 -9.640625l1.484375 0l0 2.03125l0.046875 0q0.546875 -1.15625 1.359375 -1.703125q0.828125 -0.5625 1.96875 -0.5625zm13.614731 -3.4375l0 10.046875q0 1.578125 -1.0 2.578125q-0.984375 1.0 -2.921875 1.0q-1.796875 0 -2.84375 -0.9375q-1.046875 -0.953125 -1.046875 -3.296875l0 -0.453125l1.78125 0l0 0.40625q0 1.640625 0.53125 2.21875q0.53125 0.578125 1.609375 0.578125q1.09375 0 1.609375 -0.578125q0.515625 -0.578125 0.515625 -1.75l0 -9.8125l1.765625 0zm7.4021454 -0.328125q2.21875 0 3.515625 1.078125q1.3125 1.078125 1.390625 3.140625l-1.671875 0q-0.15625 -1.359375 -1.0 -2.03125q-0.828125 -0.6875 -2.3125 -0.6875q-1.421875 0 -2.203125 0.59375q-0.78125 0.578125 -0.78125 1.671875q0 0.78125 0.65625 1.28125q0.671875 0.5 3.625 1.09375q2.125 0.4375 3.171875 1.34375q1.0625 0.90625 1.0625 2.5q0 1.859375 -1.515625 2.921875q-1.515625 1.046875 -3.6875 1.046875q-2.421875 0 -3.953125 -1.203125q-1.53125 -1.21875 -1.546875 -3.484375l1.6875 0q0.015625 1.515625 1.078125 2.359375q1.078125 0.84375 2.796875 0.84375q1.609375 0 2.484375 -0.625q0.890625 -0.625 0.890625 -1.796875q0 -0.953125 -0.8125 -1.515625q-0.8125 -0.578125 -2.9375 -1.0q-2.84375 -0.53125 -3.8125 -1.375q-0.953125 -0.859375 -0.953125 -2.25q0 -1.796875 1.359375 -2.84375q1.359375 -1.0625 3.46875 -1.0625zm13.244553 0q1.9375 0 3.375 0.90625q1.4375 0.890625 2.21875 2.515625q0.78125 1.625 0.78125 3.5625q0 1.953125 -0.78125 3.578125q-0.765625 1.609375 -2.21875 2.5q-1.453125 0.890625 -3.375 0.890625q-1.921875 0 -3.375 -0.890625q-1.4375 -0.890625 -2.234375 -2.5q-0.78125 -1.625 -0.78125 -3.578125q0 -3.03125 1.734375 -5.0q1.75 -1.984375 4.65625 -1.984375zm-4.609375 6.984375q0 1.484375 0.53125 2.765625q0.546875 1.28125 1.59375 2.0q1.0625 0.71875 2.484375 0.71875q2.140625 0 3.375 -1.546875q1.234375 -1.546875 1.234375 -3.9375q0 -2.375 -1.234375 -3.921875q-1.21875 -1.5625 -3.40625 -1.5625q-2.140625 0 -3.359375 1.5625q-1.21875 1.5625 -1.21875 3.921875zm15.018135 -6.65625l7.015625 10.796875l0.03125 0l0 -10.796875l1.671875 0l0 13.3125l-1.9375 0l-6.953125 -10.6875l-0.046875 0l0 10.6875l-1.671875 0l0 -13.3125l1.890625 0zm20.6875 3.453125q2.1875 0 3.421875 1.40625q1.25 1.40625 1.25 3.640625q0 2.25 -1.28125 3.65625q-1.265625 1.390625 -3.390625 1.390625q-2.09375 0 -3.390625 -1.375q-1.296875 -1.375 -1.296875 -3.671875q0 -2.296875 1.265625 -3.671875q1.265625 -1.375 3.421875 -1.375zm-3.015625 5.046875q0 1.65625 0.84375 2.65625q0.859375 0.984375 2.171875 0.984375q1.296875 0 2.140625 -0.984375q0.859375 -1.0 0.859375 -2.65625q0 -1.640625 -0.84375 -2.640625q-0.84375 -1.015625 -2.171875 -1.015625q-1.28125 0 -2.140625 0.984375q-0.859375 0.984375 -0.859375 2.671875zm11.197144 -8.5l0 4.984375l0.046875 0q0.375 -0.75 1.171875 -1.140625q0.796875 -0.390625 1.90625 -0.390625q2.0625 0 3.25 1.421875q1.1875 1.421875 1.1875 3.640625q0 2.25 -1.1875 3.640625q-1.171875 1.390625 -3.203125 1.390625q-0.90625 0 -1.765625 -0.375q-0.859375 -0.375 -1.359375 -1.140625l-0.046875 0l0 1.28125l-1.578125 0l0 -13.3125l1.578125 0zm-0.046875 8.484375q0 1.671875 0.8125 2.671875q0.8125 0.984375 2.234375 0.984375q1.375 0 2.125 -0.984375q0.75 -0.984375 0.75 -2.75q0 -1.546875 -0.796875 -2.546875q-0.796875 -1.015625 -2.1875 -1.015625q-1.40625 0 -2.171875 1.015625q-0.765625 1.015625 -0.765625 2.625zm11.152679 -8.484375l0 1.9375l-1.59375 0l0 -1.9375l1.59375 0zm0 3.671875l0 10.9375q0 1.125 -0.578125 1.765625q-0.578125 0.640625 -1.734375 0.640625q-0.21875 0 -0.421875 -0.03125q-0.203125 -0.015625 -0.40625 -0.0625l0 -1.34375q0.125 0.015625 0.265625 0.015625q0.125 0.015625 0.25 0.015625q0.484375 -0.015625 0.640625 -0.109375q0.171875 -0.09375 0.28125 -0.328125q0.109375 -0.234375 0.109375 -0.8125l0 -10.6875l1.59375 0zm6.472946 -0.21875q2.078125 0 3.21875 1.5q1.15625 1.484375 1.15625 3.828125l0 0.1875l-7.234375 0l0 0.109375q0 1.390625 0.796875 2.234375q0.8125 0.828125 2.21875 0.828125q1.046875 0 1.671875 -0.484375q0.625 -0.5 0.828125 -1.40625l1.5625 0q-0.328125 1.609375 -1.40625 2.453125q-1.078125 0.84375 -2.71875 0.84375q-1.515625 0 -2.578125 -0.6875q-1.046875 -0.6875 -1.546875 -1.90625q-0.5 -1.234375 -0.5 -2.515625q0 -2.140625 1.28125 -3.5625q1.296875 -1.421875 3.25 -1.421875zm-2.859375 4.109375l5.546875 0q-0.078125 -1.171875 -0.859375 -1.9375q-0.765625 -0.78125 -1.9375 -0.78125q-1.09375 0 -1.875 0.734375q-0.765625 0.734375 -0.875 1.984375zm12.895447 -4.109375q1.765625 0 2.859375 0.84375q1.109375 0.828125 1.296875 2.46875l-1.625 0q-0.203125 -0.9375 -0.828125 -1.421875q-0.625 -0.5 -1.5625 -0.5q-1.484375 0 -2.25 0.984375q-0.765625 0.984375 -0.765625 2.78125q0 1.609375 0.75 2.578125q0.765625 0.953125 2.078125 0.953125q1.15625 0 1.8125 -0.625q0.671875 -0.625 0.828125 -1.734375l1.625 0q-0.265625 1.8125 -1.359375 2.796875q-1.09375 0.96875 -2.890625 0.96875q-2.109375 0 -3.3125 -1.328125q-1.203125 -1.328125 -1.203125 -3.609375q0 -2.359375 1.21875 -3.75q1.21875 -1.40625 3.328125 -1.40625zm8.192322 -2.671875l0 2.890625l1.921875 0l0 1.390625l-1.921875 0l0 6.046875q0 0.71875 0.484375 0.765625q0.484375 0.03125 1.0 0.03125l0.4375 0l0 1.40625l-1.296875 0q-1.3125 0 -1.765625 -0.453125q-0.4375 -0.46875 -0.4375 -1.5625l0 -6.234375l-1.65625 0l0 -1.390625l1.65625 0l0 -2.890625l1.578125 0z" fill-rule="nonzero"/><path fill="#000000" fill-opacity="0.0" d="m32.876644 85.81528l182.3622 0l0 31.46457l-182.3622 0z" fill-rule="evenodd"/><path fill="#000000" d="m58.997517 95.233185l0 13.234375l-1.578125 0l0 -9.46875l-3.4375 0l0 -1.28125l0.046875 0q1.6875 0 2.59375 -0.59375q0.921875 -0.609375 1.15625 -1.890625l1.21875 0zm7.3444633 11.171875l0 2.0625l-2.0625 0l0 -2.0625l2.0625 0z" fill-rule="nonzero"/><path fill="#000000" d="m97.85341 94.826935q2.21875 0 3.515625 1.078125q1.3125 1.078125 1.390625 3.140625l-1.671875 0q-0.15625 -1.359375 -1.0 -2.03125q-0.828125 -0.6875 -2.3125 -0.6875q-1.421875 0 -2.203125 0.59375q-0.78125 0.578125 -0.78125 1.671875q0 0.78125 0.65625 1.28125q0.671875 0.5 3.625 1.09375q2.125 0.4375 3.171875 1.34375q1.0625 0.90625 1.0625 2.5q0 1.859375 -1.515625 2.921875q-1.515625 1.046875 -3.6875 1.046875q-2.421875 0 -3.953125 -1.203125q-1.53125 -1.21875 -1.546875 -3.484375l1.6875 0q0.015625 1.515625 1.078125 2.359375q1.078125 0.84375 2.796875 0.84375q1.609375 0 2.484375 -0.625q0.890625 -0.625 0.890625 -1.796875q0 -0.953125 -0.8125 -1.515625q-0.8125 -0.578125 -2.9375 -1.0q-2.84375 -0.53125 -3.8125 -1.375q-0.953125 -0.859375 -0.953125 -2.25q0 -1.796875 1.359375 -2.84375q1.359375 -1.0625 3.46875 -1.0625zm9.025803 0.328125l0 1.9375l-1.59375 0l0 -1.9375l1.59375 0zm0 3.671875l0 9.640625l-1.59375 0l0 -9.640625l1.59375 0zm6.394821 -0.21875q1.0 0 1.734375 0.4375q0.75 0.4375 1.140625 1.15625l0.03125 0l0 -1.375l1.484375 0l0 8.921875q0 2.265625 -1.09375 3.453125q-1.09375 1.1875 -3.375 1.1875q-1.65625 0 -2.796875 -0.734375q-1.125 -0.734375 -1.203125 -2.109375l1.578125 0q0.046875 0.75 0.796875 1.15625q0.75 0.421875 1.703125 0.421875q1.40625 0 2.15625 -0.9375q0.75 -0.921875 0.75 -2.75l0 -0.609375l-0.046875 0q-0.375 0.796875 -1.1875 1.28125q-0.796875 0.46875 -1.828125 0.46875q-1.953125 0 -3.125 -1.34375q-1.171875 -1.359375 -1.171875 -3.53125q0 -2.21875 1.171875 -3.65625q1.171875 -1.4375 3.28125 -1.4375zm-2.78125 4.890625q0 1.71875 0.71875 2.703125q0.734375 0.984375 2.015625 0.984375q1.3125 0 2.078125 -1.015625q0.78125 -1.015625 0.78125 -2.71875q0 -1.546875 -0.71875 -2.5q-0.71875 -0.953125 -2.03125 -0.953125q-1.328125 0 -2.09375 0.953125q-0.75 0.953125 -0.75 2.546875zm14.228394 -4.890625q1.75 0 2.53125 0.890625q0.796875 0.890625 0.796875 2.546875l0 6.421875l-1.59375 0l0 -6.59375q0 -0.8125 -0.53125 -1.34375q-0.515625 -0.53125 -1.4375 -0.53125q-1.34375 0 -2.09375 0.828125q-0.75 0.8125 -0.75 2.125l0 5.515625l-1.59375 0l0 -9.640625l1.5 0l0 1.53125l0.03125 0q0.53125 -0.90625 1.296875 -1.328125q0.78125 -0.421875 1.84375 -0.421875zm9.719467 0q2.078125 0 3.21875 1.5q1.15625 1.484375 1.15625 3.828125l0 0.1875l-7.234375 0l0 0.109375q0 1.390625 0.796875 2.234375q0.8125 0.828125 2.21875 0.828125q1.046875 0 1.671875 -0.484375q0.625 -0.5 0.828125 -1.40625l1.5625 0q-0.328125 1.609375 -1.40625 2.453125q-1.078125 0.84375 -2.71875 0.84375q-1.515625 0 -2.578125 -0.6875q-1.046875 -0.6875 -1.546875 -1.90625q-0.5 -1.234375 -0.5 -2.515625q0 -2.140625 1.28125 -3.5625q1.296875 -1.421875 3.25 -1.421875zm-2.859375 4.109375l5.546875 0q-0.078125 -1.171875 -0.859375 -1.9375q-0.765625 -0.78125 -1.9375 -0.78125q-1.09375 0 -1.875 0.734375q-0.765625 0.734375 -0.875 1.984375zm17.489197 -7.5625l0 13.3125l-1.59375 0l0 -1.296875l-0.03125 0q-0.375 0.734375 -1.1875 1.140625q-0.8125 0.390625 -1.890625 0.390625q-2.015625 0 -3.234375 -1.40625q-1.203125 -1.40625 -1.203125 -3.671875q0 -2.234375 1.171875 -3.625q1.171875 -1.390625 3.21875 -1.390625q0.953125 0 1.796875 0.390625q0.859375 0.375 1.328125 1.109375l0.03125 0l0 -4.953125l1.59375 0zm-7.46875 8.5625q0 1.5625 0.8125 2.578125q0.8125 1.0 2.1875 1.0q1.390625 0 2.15625 -1.0q0.78125 -1.015625 0.78125 -2.640625q0 -1.640625 -0.796875 -2.640625q-0.78125 -1.015625 -2.265625 -1.015625q-1.359375 0 -2.125 1.0q-0.75 0.984375 -0.75 2.71875zm18.914108 -8.890625q-1.25 1.96875 -1.859375 4.0625q-0.59375 2.078125 -0.59375 4.546875q0 2.484375 0.59375 4.59375q0.59375 2.109375 1.859375 4.140625l-1.203125 0q-1.609375 -2.5 -2.28125 -4.5625q-0.65625 -2.078125 -0.65625 -4.171875q0 -2.1875 0.75 -4.4375q0.75 -2.25 2.1875 -4.171875l1.203125 0zm8.031174 0.328125l0 10.046875q0 1.578125 -1.0 2.578125q-0.984375 1.0 -2.921875 1.0q-1.796875 0 -2.84375 -0.9375q-1.0468903 -0.953125 -1.0468903 -3.296875l0 -0.453125l1.7812653 0l0 0.40625q0 1.640625 0.53125 2.21875q0.53125 0.578125 1.609375 0.578125q1.09375 0 1.609375 -0.578125q0.515625 -0.578125 0.515625 -1.75l0 -9.8125l1.765625 0zm3.4958801 0l2.609375 11.078125l0.046875 0l2.984375 -11.078125l1.921875 0l2.9375 11.078125l0.046875 0l2.703125 -11.078125l1.765625 0l-3.5625 13.3125l-1.84375 0l-3.046875 -11.203125l-0.03125 0l-3.078125 11.203125l-1.84375 0l-3.40625 -13.3125l1.796875 0zm21.177856 -0.328125q2.21875 0 3.515625 1.078125q1.3125 1.078125 1.390625 3.140625l-1.671875 0q-0.15625 -1.359375 -1.0 -2.03125q-0.828125 -0.6875 -2.3125 -0.6875q-1.421875 0 -2.203125 0.59375q-0.78125 0.578125 -0.78125 1.671875q0 0.78125 0.65625 1.28125q0.671875 0.5 3.625 1.09375q2.125 0.4375 3.171875 1.34375q1.0625 0.90625 1.0625 2.5q0 1.859375 -1.515625 2.921875q-1.515625 1.046875 -3.6875 1.046875q-2.421875 0 -3.953125 -1.203125q-1.53125 -1.21875 -1.546875 -3.484375l1.6875 0q0.015625 1.515625 1.078125 2.359375q1.078125 0.84375 2.796875 0.84375q1.609375 0 2.484375 -0.625q0.890625 -0.625 0.890625 -1.796875q0 -0.953125 -0.8125 -1.515625q-0.8125 -0.578125 -2.9375 -1.0q-2.84375 -0.53125 -3.8125 -1.375q-0.953125 -0.859375 -0.953125 -2.25q0 -1.796875 1.359375 -2.84375q1.359375 -1.0625 3.46875 -1.0625zm7.182068 0q1.484375 2.296875 2.203125 4.40625q0.71875 2.09375 0.71875 4.328125q0 2.265625 -0.765625 4.484375q-0.75 2.203125 -2.15625 4.125l-1.21875 0q1.25 -1.984375 1.859375 -4.0625q0.609375 -2.09375 0.609375 -4.546875q0 -2.484375 -0.609375 -4.59375q-0.609375 -2.125 -1.859375 -4.140625l1.21875 0z" fill-rule="nonzero"/><path fill="#000000" fill-opacity="0.0" d="m25.916103 137.4462l196.28346 0l0 31.46457l-196.28346 0z" fill-rule="evenodd"/><path fill="#000000" d="m41.780468 146.8641q1.828125 0 2.984375 1.046875q1.15625 1.03125 1.15625 2.765625q0 1.375 -0.765625 2.484375q-0.765625 1.09375 -3.25 2.515625q-1.5 0.875 -2.140625 1.578125q-0.625 0.6875 -0.765625 1.4375l6.78125 0l0 1.40625l-8.625 0q0.125 -1.65625 0.84375 -2.890625q0.71875 -1.234375 2.671875 -2.40625q2.3125 -1.40625 2.9375 -2.203125q0.625 -0.8125 0.625 -1.921875q0 -1.046875 -0.734375 -1.71875q-0.71875 -0.6875 -1.8125 -0.6875q-1.1875 0 -1.890625 0.890625q-0.6875 0.890625 -0.6875 2.265625l0 0.125l-1.59375 0l0 -0.328125q0 -1.96875 1.15625 -3.15625q1.171875 -1.203125 3.109375 -1.203125zm8.906967 11.171875l0 2.0625l-2.0625 0l0 -2.0625l2.0625 0zm32.963398 -11.25l0 1.484375l-7.4375 0l0 4.234375l6.921875 0l0 1.484375l-6.921875 0l0 4.609375l7.5 0l0 1.5l-9.265625 0l0 -13.3125l9.203125 0zm6.599106 3.453125q1.75 0 2.53125 0.890625q0.796875 0.890625 0.796875 2.546875l0 6.421875l-1.59375 0l0 -6.59375q0 -0.8125 -0.53125 -1.34375q-0.515625 -0.53125 -1.4375 -0.53125q-1.34375 0 -2.09375 0.828125q-0.75 0.8125 -0.75 2.125l0 5.515625l-1.59375 0l0 -9.640625l1.5 0l0 1.53125l0.03125 0q0.53125 -0.90625 1.296875 -1.328125q0.78125 -0.421875 1.84375 -0.421875zm9.735092 0q1.765625 0 2.859375 0.84375q1.109375 0.828125 1.296875 2.46875l-1.625 0q-0.203125 -0.9375 -0.828125 -1.421875q-0.625 -0.5 -1.5625 -0.5q-1.484375 0 -2.25 0.984375q-0.765625 0.984375 -0.765625 2.78125q0 1.609375 0.75 2.578125q0.765625 0.953125 2.078125 0.953125q1.15625 0 1.8125 -0.625q0.671875 -0.625 0.828125 -1.734375l1.625 0q-0.265625 1.8125 -1.359375 2.796875q-1.09375 0.96875 -2.890625 0.96875q-2.109375 0 -3.3125 -1.328125q-1.203125 -1.328125 -1.203125 -3.609375q0 -2.359375 1.21875 -3.75q1.21875 -1.40625 3.328125 -1.40625zm10.801697 -0.015625q0.046875 0 0.09375 0q0.046875 0 0.125 0.015625l0 1.671875q-1.796875 0 -2.65625 0.953125q-0.84375 0.9375 -0.84375 2.921875l0 4.3125l-1.578125 0l0 -9.640625l1.484375 0l0 2.03125l0.046875 0q0.546875 -1.15625 1.359375 -1.703125q0.828125 -0.5625 1.96875 -0.5625zm2.259552 0.234375l2.8125 7.875l0.046875 0l2.703125 -7.875l1.6875 0l-4.109375 10.671875q-0.640625 1.671875 -1.234375 2.25q-0.59375 0.578125 -1.65625 0.578125q-0.296875 0 -0.578125 -0.03125q-0.265625 -0.03125 -0.53125 -0.125l0 -1.46875q0.234375 0.078125 0.46875 0.140625q0.234375 0.078125 0.46875 0.078125q0.96875 0 1.34375 -0.96875q0.390625 -0.953125 0.609375 -1.53125l-3.828125 -9.59375l1.796875 0zm13.34375 -0.21875q2.0625 0 3.25 1.421875q1.1875 1.421875 1.1875 3.640625q0 2.25 -1.1875 3.640625q-1.171875 1.390625 -3.203125 1.390625q-0.90625 0 -1.765625 -0.375q-0.859375 -0.375 -1.359375 -1.140625l-0.046875 0l0 4.984375l-1.578125 0l0 -13.34375l1.578125 0l0 1.3125l0.046875 0q0.375 -0.75 1.171875 -1.140625q0.8125 -0.390625 1.90625 -0.390625zm-3.171875 5.03125q0 1.671875 0.8125 2.671875q0.8125 0.984375 2.234375 0.984375q1.375 0 2.125 -0.984375q0.75 -0.984375 0.75 -2.75q0 -1.546875 -0.796875 -2.546875q-0.796875 -1.015625 -2.1875 -1.015625q-1.40625 0 -2.171875 1.015625q-0.765625 1.015625 -0.765625 2.625zm11.668304 -7.703125l0 2.890625l1.921875 0l0 1.390625l-1.921875 0l0 6.046875q0 0.71875 0.484375 0.765625q0.484375 0.03125 1.0 0.03125l0.4375 0l0 1.40625l-1.296875 0q-1.3125 0 -1.765625 -0.453125q-0.4375 -0.46875 -0.4375 -1.5625l0 -6.234375l-1.65625 0l0 -1.390625l1.65625 0l0 -2.890625l1.578125 0zm7.460266 2.671875q2.078125 0 3.21875 1.5q1.15625 1.484375 1.15625 3.828125l0 0.1875l-7.234375 0l0 0.109375q0 1.390625 0.796875 2.234375q0.8125 0.828125 2.21875 0.828125q1.046875 0 1.671875 -0.484375q0.625 -0.5 0.828125 -1.40625l1.5625 0q-0.328125 1.609375 -1.40625 2.453125q-1.078125 0.84375 -2.71875 0.84375q-1.515625 0 -2.578125 -0.6875q-1.046875 -0.6875 -1.546875 -1.90625q-0.5 -1.234375 -0.5 -2.515625q0 -2.140625 1.28125 -3.5625q1.296875 -1.421875 3.25 -1.421875zm-2.859375 4.109375l5.546875 0q-0.078125 -1.171875 -0.859375 -1.9375q-0.765625 -0.78125 -1.9375 -0.78125q-1.09375 0 -1.875 0.734375q-0.765625 0.734375 -0.875 1.984375zm17.489197 -7.5625l0 13.3125l-1.59375 0l0 -1.296875l-0.03125 0q-0.375 0.734375 -1.1875 1.140625q-0.8125 0.390625 -1.890625 0.390625q-2.015625 0 -3.234375 -1.40625q-1.203125 -1.40625 -1.203125 -3.671875q0 -2.234375 1.171875 -3.625q1.171875 -1.390625 3.21875 -1.390625q0.953125 0 1.796875 0.390625q0.859375 0.375 1.328125 1.109375l0.03125 0l0 -4.953125l1.59375 0zm-7.46875 8.5625q0 1.5625 0.8125 2.578125q0.8125 1.0 2.1875 1.0q1.390625 0 2.15625 -1.0q0.78125 -1.015625 0.78125 -2.640625q0 -1.640625 -0.796875 -2.640625q-0.78125 -1.015625 -2.265625 -1.015625q-1.359375 0 -2.125 1.0q-0.75 0.984375 -0.75 2.71875zm18.914108 -8.890625q-1.25 1.96875 -1.859375 4.0625q-0.59375 2.078125 -0.59375 4.546875q0 2.484375 0.59375 4.59375q0.59375 2.109375 1.859375 4.140625l-1.203125 0q-1.609375 -2.5 -2.28125 -4.5625q-0.65625 -2.078125 -0.65625 -4.171875q0 -2.1875 0.75 -4.4375q0.75 -2.25 2.1875 -4.171875l1.203125 0zm8.031158 0.328125l0 10.046875q0 1.578125 -1.0 2.578125q-0.984375 1.0 -2.921875 1.0q-1.796875 0 -2.84375 -0.9375q-1.046875 -0.953125 -1.046875 -3.296875l0 -0.453125l1.78125 0l0 0.40625q0 1.640625 0.53125 2.21875q0.53125 0.578125 1.609375 0.578125q1.09375 0 1.609375 -0.578125q0.515625 -0.578125 0.515625 -1.75l0 -9.8125l1.765625 0zm3.4958954 0l2.609375 11.078125l0.046875 0l2.984375 -11.078125l1.921875 0l2.9375 11.078125l0.046875 0l2.703125 -11.078125l1.765625 0l-3.5625 13.3125l-1.84375 0l-3.046875 -11.203125l-0.03125 0l-3.078125 11.203125l-1.84375 0l-3.40625 -13.3125l1.796875 0zm25.896606 0l0 1.484375l-7.4375 0l0 4.234375l6.921875 0l0 1.484375l-6.921875 0l0 4.609375l7.5 0l0 1.5l-9.265625 0l0 -13.3125l9.203125 0zm1.7709808 -0.328125q1.484375 2.296875 2.203125 4.40625q0.71875 2.09375 0.71875 4.328125q0 2.265625 -0.765625 4.484375q-0.75 2.203125 -2.15625 4.125l-1.21875 0q1.25 -1.984375 1.859375 -4.0625q0.609375 -2.09375 0.609375 -4.546875q0 -2.484375 -0.609375 -4.59375q-0.609375 -2.125 -1.859375 -4.140625l1.21875 0z" fill-rule="nonzero"/><path fill="#000000" fill-opacity="0.0" d="m14.67191 189.07611l218.77165 0l0 31.46457l-218.77165 0z" fill-rule="evenodd"/><path fill="#000000" d="m29.46291 198.49402q1.90625 0 2.96875 0.953125q1.0625 0.9375 1.0625 2.59375q0 0.796875 -0.484375 1.5q-0.46875 0.703125 -1.359375 1.140625l0 0.03125q1.171875 0.265625 1.78125 1.109375q0.609375 0.828125 0.609375 2.09375q0 1.859375 -1.265625 2.953125q-1.265625 1.09375 -3.28125 1.09375q-1.984375 0 -3.203125 -1.109375q-1.203125 -1.109375 -1.203125 -3.15625l0 -0.0625l1.59375 0q0.0625 1.421875 0.8125 2.171875q0.75 0.75 2.0 0.75q1.234375 0 2.046875 -0.71875q0.828125 -0.71875 0.828125 -1.84375q0 -1.171875 -0.78125 -1.84375q-0.765625 -0.6875 -2.09375 -0.6875q-0.203125 0 -0.4375 0.015625q-0.21875 0.015625 -0.46875 0.03125l0 -1.328125q0.21875 0.015625 0.59375 0.015625q0.921875 0 1.46875 -0.296875q0.546875 -0.296875 0.84375 -0.75q0.3125 -0.46875 0.3125 -1.125q0 -0.984375 -0.640625 -1.546875q-0.625 -0.578125 -1.703125 -0.578125q-1.15625 0 -1.828125 0.765625q-0.65625 0.75 -0.6875 2.109375l-1.578125 0q0.09375 -2.0625 1.15625 -3.171875q1.078125 -1.109375 2.9375 -1.109375zm9.063217 11.171875l0 2.0625l-2.0625 0l0 -2.0625l2.0625 0zm28.244648 -11.578125q2.21875 0 3.515625 1.078125q1.3125 1.078125 1.390625 3.140625l-1.671875 0q-0.15625 -1.359375 -1.0 -2.03125q-0.828125 -0.6875 -2.3125 -0.6875q-1.421875 0 -2.203125 0.59375q-0.7812538 0.578125 -0.7812538 1.671875q0 0.78125 0.6562538 1.28125q0.671875 0.5 3.625 1.09375q2.125 0.4375 3.171875 1.34375q1.0625 0.90625 1.0625 2.5q0 1.859375 -1.515625 2.921875q-1.515625 1.046875 -3.6875 1.046875q-2.421875 0 -3.9531288 -1.203125q-1.53125 -1.21875 -1.546875 -3.484375l1.6875 0q0.015625 1.515625 1.0781288 2.359375q1.078125 0.84375 2.796875 0.84375q1.609375 0 2.484375 -0.625q0.890625 -0.625 0.890625 -1.796875q0 -0.953125 -0.8125 -1.515625q-0.8125 -0.578125 -2.9375 -1.0q-2.8437538 -0.53125 -3.8125038 -1.375q-0.953125 -0.859375 -0.953125 -2.25q0 -1.796875 1.359375 -2.84375q1.3593788 -1.0625 3.4687538 -1.0625zm9.025803 0.328125l0 1.9375l-1.59375 0l0 -1.9375l1.59375 0zm0 3.671875l0 9.640625l-1.59375 0l0 -9.640625l1.59375 0zm6.394821 -0.21875q1.0 0 1.734375 0.4375q0.75 0.4375 1.140625 1.15625l0.03125 0l0 -1.375l1.484375 0l0 8.921875q0 2.265625 -1.09375 3.453125q-1.09375 1.1875 -3.375 1.1875q-1.65625 0 -2.796875 -0.734375q-1.125 -0.734375 -1.203125 -2.109375l1.578125 0q0.046875 0.75 0.796875 1.15625q0.75 0.421875 1.703125 0.421875q1.40625 0 2.15625 -0.9375q0.75 -0.921875 0.75 -2.75l0 -0.609375l-0.046875 0q-0.375 0.796875 -1.1875 1.28125q-0.796875 0.46875 -1.828125 0.46875q-1.953125 0 -3.125 -1.34375q-1.171875 -1.359375 -1.171875 -3.53125q0 -2.21875 1.171875 -3.65625q1.171875 -1.4375 3.28125 -1.4375zm-2.78125 4.890625q0 1.71875 0.71875 2.703125q0.734375 0.984375 2.015625 0.984375q1.3125 0 2.078125 -1.015625q0.78125 -1.015625 0.78125 -2.71875q0 -1.546875 -0.71875 -2.5q-0.71875 -0.953125 -2.03125 -0.953125q-1.328125 0 -2.09375 0.953125q-0.75 0.953125 -0.75 2.546875zm14.228394 -4.890625q1.75 0 2.53125 0.890625q0.796875 0.890625 0.796875 2.546875l0 6.421875l-1.59375 0l0 -6.59375q0 -0.8125 -0.53125 -1.34375q-0.515625 -0.53125 -1.4375 -0.53125q-1.34375 0 -2.09375 0.828125q-0.75 0.8125 -0.75 2.125l0 5.515625l-1.59375 0l0 -9.640625l1.5 0l0 1.53125l0.03125 0q0.53125 -0.90625 1.296875 -1.328125q0.78125 -0.421875 1.84375 -0.421875zm9.719467 0q2.078125 0 3.21875 1.5q1.15625 1.484375 1.15625 3.828125l0 0.1875l-7.234375 0l0 0.109375q0 1.390625 0.796875 2.234375q0.8125 0.828125 2.21875 0.828125q1.046875 0 1.671875 -0.484375q0.625 -0.5 0.828125 -1.40625l1.5625 0q-0.328125 1.609375 -1.40625 2.453125q-1.078125 0.84375 -2.71875 0.84375q-1.515625 0 -2.578125 -0.6875q-1.046875 -0.6875 -1.546875 -1.90625q-0.5 -1.234375 -0.5 -2.515625q0 -2.140625 1.28125 -3.5625q1.296875 -1.421875 3.25 -1.421875zm-2.859375 4.109375l5.546875 0q-0.078125 -1.171875 -0.859375 -1.9375q-0.765625 -0.78125 -1.9375 -0.78125q-1.09375 0 -1.875 0.734375q-0.765625 0.734375 -0.875 1.984375zm17.489197 -7.5625l0 13.3125l-1.59375 0l0 -1.296875l-0.03125 0q-0.375 0.734375 -1.1875 1.140625q-0.8125 0.390625 -1.890625 0.390625q-2.015625 0 -3.234375 -1.40625q-1.203125 -1.40625 -1.203125 -3.671875q0 -2.234375 1.171875 -3.625q1.171875 -1.390625 3.21875 -1.390625q0.953125 0 1.796875 0.390625q0.859375 0.375 1.328125 1.109375l0.03125 0l0 -4.953125l1.59375 0zm-7.46875 8.5625q0 1.5625 0.8125 2.578125q0.8125 1.0 2.1875 1.0q1.390625 0 2.15625 -1.0q0.78125 -1.015625 0.78125 -2.640625q0 -1.640625 -0.796875 -2.640625q-0.78125 -1.015625 -2.265625 -1.015625q-1.359375 0 -2.125 1.0q-0.75 0.984375 -0.75 2.71875zm19.0391 -5.109375q1.96875 0 2.78125 0.703125q0.828125 0.6875 0.828125 1.875q0 5.015625 0 5.5625q0 0.546875 0.5 0.546875q0.109375 0 0.234375 -0.03125q0.140625 -0.03125 0.25 -0.0625l0 1.234375q-0.21875 0.125 -0.5 0.1875q-0.28125 0.078125 -0.625 0.078125q-0.65625 0 -1.0 -0.375q-0.34375 -0.375 -0.34375 -1.125q-0.640625 0.75 -1.5 1.125q-0.84375 0.375 -1.90625 0.375q-1.4843674 0 -2.3437424 -0.703125q-0.84375 -0.71875 -0.84375 -2.015625q0 -1.296875 0.828125 -2.046875q0.828125 -0.765625 3.9062424 -1.15625q1.03125 -0.140625 1.390625 -0.390625q0.375 -0.265625 0.375 -0.796875q0 -0.796875 -0.515625 -1.1875q-0.5 -0.40625 -1.625 -0.40625q-1.171875 0 -1.7656174 0.453125q-0.59375 0.4375 -0.640625 1.375l-1.578125 0q0.078125 -1.609375 1.125 -2.40625q1.0625 -0.8125 2.9687424 -0.8125zm-2.7968674 7.265625q0 0.671875 0.484375 1.046875q0.5 0.375 1.3906174 0.375q1.34375 0 2.140625 -0.65625q0.796875 -0.671875 0.796875 -1.5l0 -1.65625q-0.390625 0.28125 -1.03125 0.390625q-0.640625 0.09375 -1.703125 0.234375q-1.0468674 0.15625 -1.5624924 0.578125q-0.515625 0.421875 -0.515625 1.1875zm12.801689 -7.265625q1.0 0 1.734375 0.4375q0.75 0.4375 1.140625 1.15625l0.03125 0l0 -1.375l1.484375 0l0 8.921875q0 2.265625 -1.09375 3.453125q-1.09375 1.1875 -3.375 1.1875q-1.65625 0 -2.796875 -0.734375q-1.125 -0.734375 -1.203125 -2.109375l1.578125 0q0.046875 0.75 0.796875 1.15625q0.75 0.421875 1.703125 0.421875q1.40625 0 2.15625 -0.9375q0.75 -0.921875 0.75 -2.75l0 -0.609375l-0.046875 0q-0.375 0.796875 -1.1875 1.28125q-0.796875 0.46875 -1.828125 0.46875q-1.953125 0 -3.125 -1.34375q-1.171875 -1.359375 -1.171875 -3.53125q0 -2.21875 1.171875 -3.65625q1.171875 -1.4375 3.28125 -1.4375zm-2.78125 4.890625q0 1.71875 0.71875 2.703125q0.734375 0.984375 2.015625 0.984375q1.3125 0 2.078125 -1.015625q0.78125 -1.015625 0.78125 -2.71875q0 -1.546875 -0.71875 -2.5q-0.71875 -0.953125 -2.03125 -0.953125q-1.328125 0 -2.09375 0.953125q-0.75 0.953125 -0.75 2.546875zm13.509644 -4.890625q1.96875 0 2.78125 0.703125q0.828125 0.6875 0.828125 1.875q0 5.015625 0 5.5625q0 0.546875 0.5 0.546875q0.109375 0 0.234375 -0.03125q0.140625 -0.03125 0.25 -0.0625l0 1.234375q-0.21875 0.125 -0.5 0.1875q-0.28125 0.078125 -0.625 0.078125q-0.65625 0 -1.0 -0.375q-0.34375 -0.375 -0.34375 -1.125q-0.640625 0.75 -1.5 1.125q-0.84375 0.375 -1.90625 0.375q-1.484375 0 -2.34375 -0.703125q-0.84375 -0.71875 -0.84375 -2.015625q0 -1.296875 0.828125 -2.046875q0.828125 -0.765625 3.90625 -1.15625q1.03125 -0.140625 1.390625 -0.390625q0.375 -0.265625 0.375 -0.796875q0 -0.796875 -0.515625 -1.1875q-0.5 -0.40625 -1.625 -0.40625q-1.171875 0 -1.765625 0.453125q-0.59375 0.4375 -0.640625 1.375l-1.578125 0q0.078125 -1.609375 1.125 -2.40625q1.0625 -0.8125 2.96875 -0.8125zm-2.796875 7.265625q0 0.671875 0.484375 1.046875q0.5 0.375 1.390625 0.375q1.34375 0 2.140625 -0.65625q0.796875 -0.671875 0.796875 -1.5l0 -1.65625q-0.390625 0.28125 -1.03125 0.390625q-0.640625 0.09375 -1.703125 0.234375q-1.046875 0.15625 -1.5625 0.578125q-0.515625 0.421875 -0.515625 1.1875zm10.551697 -10.71875l0 1.9375l-1.59375 0l0 -1.9375l1.59375 0zm0 3.671875l0 9.640625l-1.59375 0l0 -9.640625l1.59375 0zm7.129196 -0.21875q1.75 0 2.53125 0.890625q0.796875 0.890625 0.796875 2.546875l0 6.421875l-1.59375 0l0 -6.59375q0 -0.8125 -0.53125 -1.34375q-0.515625 -0.53125 -1.4375 -0.53125q-1.34375 0 -2.09375 0.828125q-0.75 0.8125 -0.75 2.125l0 5.515625l-1.59375 0l0 -9.640625l1.5 0l0 1.53125l0.03125 0q0.53125 -0.90625 1.296875 -1.328125q0.78125 -0.421875 1.84375 -0.421875zm14.715271 -3.78125q-1.25 1.96875 -1.859375 4.0625q-0.59375 2.078125 -0.59375 4.546875q0 2.484375 0.59375 4.59375q0.59375 2.109375 1.859375 4.140625l-1.203125 0q-1.609375 -2.5 -2.28125 -4.5625q-0.65625 -2.078125 -0.65625 -4.171875q0 -2.1875 0.75 -4.4375q0.75 -2.25 2.1875 -4.171875l1.203125 0zm8.031158 0.328125l0 10.046875q0 1.578125 -1.0 2.578125q-0.984375 1.0 -2.921875 1.0q-1.796875 0 -2.84375 -0.9375q-1.046875 -0.953125 -1.046875 -3.296875l0 -0.453125l1.78125 0l0 0.40625q0 1.640625 0.53125 2.21875q0.53125 0.578125 1.609375 0.578125q1.09375 0 1.609375 -0.578125q0.515625 -0.578125 0.515625 -1.75l0 -9.8125l1.765625 0zm3.4958954 0l2.609375 11.078125l0.046875 0l2.984375 -11.078125l1.921875 0l2.9375 11.078125l0.046875 0l2.703125 -11.078125l1.765625 0l-3.5625 13.3125l-1.84375 0l-3.046875 -11.203125l-0.03125 0l-3.078125 11.203125l-1.84375 0l-3.40625 -13.3125l1.796875 0zm21.177856 -0.328125q2.21875 0 3.515625 1.078125q1.3125 1.078125 1.390625 3.140625l-1.671875 0q-0.15625 -1.359375 -1.0 -2.03125q-0.828125 -0.6875 -2.3125 -0.6875q-1.421875 0 -2.203125 0.59375q-0.78125 0.578125 -0.78125 1.671875q0 0.78125 0.65625 1.28125q0.671875 0.5 3.625 1.09375q2.125 0.4375 3.171875 1.34375q1.0625 0.90625 1.0625 2.5q0 1.859375 -1.515625 2.921875q-1.515625 1.046875 -3.6875 1.046875q-2.421875 0 -3.953125 -1.203125q-1.53125 -1.21875 -1.546875 -3.484375l1.6875 0q0.015625 1.515625 1.078125 2.359375q1.078125 0.84375 2.796875 0.84375q1.609375 0 2.484375 -0.625q0.890625 -0.625 0.890625 -1.796875q0 -0.953125 -0.8125 -1.515625q-0.8125 -0.578125 -2.9375 -1.0q-2.84375 -0.53125 -3.8125 -1.375q-0.953125 -0.859375 -0.953125 -2.25q0 -1.796875 1.359375 -2.84375q1.359375 -1.0625 3.46875 -1.0625zm7.1820526 0q1.484375 2.296875 2.203125 4.40625q0.71875 2.09375 0.71875 4.328125q0 2.265625 -0.765625 4.484375q-0.75 2.203125 -2.15625 4.125l-1.21875 0q1.25 -1.984375 1.859375 -4.0625q0.609375 -2.09375 0.609375 -4.546875q0 -2.484375 -0.609375 -4.59375q-0.609375 -2.125 -1.859375 -4.140625l1.21875 0z" fill-rule="nonzero"/><path fill="#000000" d="m43.32654 102.73578l0 0c0 -8.593033 6.9660263 -15.559059 15.559055 -15.559059l0 0c4.1265182 0 8.0840225 1.6392593 11.001915 4.557144c2.9178848 2.9178925 4.557144 6.8753967 4.557144 11.001915l0 0c0 8.593025 -6.9660263 15.5590515 -15.559059 15.5590515l0 0c-8.593029 0 -15.559055 -6.9660263 -15.559055 -15.5590515z" fill-rule="evenodd"/><path fill="#000000" fill-opacity="0.0" d="m42.930218 87.17643l32.12598 0l0 31.11811l-32.12598 0z" fill-rule="evenodd"/><path fill="#ffffff" d="m60.445976 96.421104l0 13.234375l-1.578125 0l0 -9.46875l-3.4375 0l0 -1.28125l0.046875 0q1.6875 0 2.59375 -0.59375q0.921875 -0.609375 1.15625 -1.890625l1.21875 0z" fill-rule="nonzero"/><path fill="#000000" d="m26.31342 153.17935l0 0c0 -8.593033 6.9660263 -15.559067 15.559055 -15.559067l0 0c4.1265182 0 8.0840225 1.639267 11.001911 4.557144c2.9178925 2.9178925 4.557144 6.8753967 4.557144 11.001923l0 0c0 8.593018 -6.9660263 15.5590515 -15.559055 15.5590515l0 0c-8.593029 0 -15.559055 -6.966034 -15.559055 -15.5590515z" fill-rule="evenodd"/><path fill="#000000" fill-opacity="0.0" d="m25.917093 137.62l32.125984 0l0 31.118118l-32.125984 0z" fill-rule="evenodd"/><path fill="#ffffff" d="m41.870354 146.86467q1.828125 0 2.984375 1.046875q1.15625 1.03125 1.15625 2.765625q0 1.375 -0.765625 2.484375q-0.765625 1.09375 -3.25 2.515625q-1.5 0.875 -2.140625 1.578125q-0.625 0.6875 -0.765625 1.4375l6.78125 0l0 1.40625l-8.625 0q0.125 -1.65625 0.84375 -2.890625q0.71875 -1.234375 2.671875 -2.40625q2.3125 -1.40625 2.9375 -2.203125q0.625 -0.8125 0.625 -1.921875q0 -1.046875 -0.734375 -1.71875q-0.71875 -0.6875 -1.8125 -0.6875q-1.1875 0 -1.890625 0.890625q-0.6875 0.890625 -0.6875 2.265625l0 0.125l-1.59375 0l0 -0.328125q0 -1.96875 1.15625 -3.15625q1.171875 -1.203125 3.109375 -1.203125z" fill-rule="nonzero"/><path fill="#000000" d="m15.0693245 205.31845l0 0c0 -8.593018 6.9660263 -15.5590515 15.559055 -15.5590515l0 0c4.1265182 0 8.084026 1.6392517 11.001915 4.557144c2.9178886 2.9178925 4.5571404 6.8753967 4.5571404 11.001907l0 0c0 8.593033 -6.9660263 15.5590515 -15.559055 15.5590515l0 0c-8.593029 0 -15.559055 -6.9660187 -15.559055 -15.5590515z" fill-rule="evenodd"/><path fill="#000000" fill-opacity="0.0" d="m14.672999 189.75911l32.125984 0l0 31.118103l-32.125984 0z" fill-rule="evenodd"/><path fill="#ffffff" d="m30.470007 199.00378q1.9062519 0 2.968752 0.953125q1.0625 0.9375 1.0625 2.59375q0 0.796875 -0.484375 1.5q-0.46875 0.703125 -1.359375 1.140625l0 0.03125q1.171875 0.265625 1.78125 1.109375q0.609375 0.828125 0.609375 2.09375q0 1.859375 -1.265625 2.953125q-1.265625 1.09375 -3.281252 1.09375q-1.984375 0 -3.203125 -1.109375q-1.203125 -1.109375 -1.203125 -3.15625l0 -0.0625l1.59375 0q0.0625 1.421875 0.8125 2.171875q0.75 0.75 2.0 0.75q1.234375 0 2.046877 -0.71875q0.828125 -0.71875 0.828125 -1.84375q0 -1.171875 -0.78125 -1.84375q-0.7656269 -0.6875 -2.093752 -0.6875q-0.203125 0 -0.4375 0.015625q-0.21875 0.015625 -0.46875 0.03125l0 -1.328125q0.21875 0.015625 0.59375 0.015625q0.921875 0 1.46875 -0.296875q0.5468769 -0.296875 0.8437519 -0.75q0.3125 -0.46875 0.3125 -1.125q0 -0.984375 -0.640625 -1.546875q-0.6250019 -0.578125 -1.7031269 -0.578125q-1.15625 0 -1.828125 0.765625q-0.65625 0.75 -0.6875 2.109375l-1.578125 0q0.09375 -2.0625 1.15625 -3.171875q1.078125 -1.109375 2.9375 -1.109375z" fill-rule="nonzero"/></g></svg>