<svg version="1.1" viewBox="0.0 0.0 675.9737532808399 127.34383202099738" fill="none" stroke="none" stroke-linecap="square" stroke-miterlimit="10" xmlns:xlink="http://www.w3.org/1999/xlink" xmlns="http://www.w3.org/2000/svg"><clipPath id="p.0"><path d="m0 0l675.97375 0l0 127.343834l-675.97375 0l0 -127.343834z" clip-rule="nonzero"/></clipPath><g clip-path="url(#p.0)"><path fill="#ffffff" d="m0 0l675.97375 0l0 127.343834l-675.97375 0z" fill-rule="evenodd"/><path fill="#000000" fill-opacity="0.0" d="m260.8105 1.030974l154.92914 0l0 125.5748l-154.92914 0z" fill-rule="evenodd"/><path stroke="#000000" stroke-width="2.0" stroke-linejoin="round" stroke-linecap="butt" d="m260.8105 1.030974l154.92914 0l0 125.5748l-154.92914 0z" fill-rule="evenodd"/><path fill="#000000" d="m301.1846 35.425873q3.03125 0 4.65625 1.609375q1.640625 1.59375 1.640625 4.734375q0 3.515625 -1.625 5.25q-1.609375 1.71875 -4.671875 1.71875l-4.671875 0l0 -13.3125l4.671875 0zm0.109375 11.8125q2.0 0 3.203125 -1.296875q1.21875 -1.296875 1.21875 -3.9375q0 -2.640625 -1.109375 -3.859375q-1.09375 -1.234375 -3.25 -1.234375l-3.078125 0l0 10.328125l3.015625 0zm12.260895 -8.359375q2.1875 0 3.421875 1.40625q1.25 1.40625 1.25 3.640625q0 2.25 -1.28125 3.65625q-1.265625 1.390625 -3.390625 1.390625q-2.09375 0 -3.390625 -1.375q-1.296875 -1.375 -1.296875 -3.671875q0 -2.296875 1.265625 -3.671875q1.265625 -1.375 3.421875 -1.375zm-3.015625 5.046875q0 1.65625 0.84375 2.65625q0.859375 0.984375 2.171875 0.984375q1.296875 0 2.140625 -0.984375q0.859375 -1.0 0.859375 -2.65625q0 -1.640625 -0.84375 -2.640625q-0.84375 -1.015625 -2.171875 -1.015625q-1.28125 0 -2.140625 0.984375q-0.859375 0.984375 -0.859375 2.671875zm13.587769 -5.046875q1.765625 0 2.859375 0.84375q1.109375 0.828125 1.296875 2.46875l-1.625 0q-0.203125 -0.9375 -0.828125 -1.421875q-0.625 -0.5 -1.5625 -0.5q-1.484375 0 -2.25 0.984375q-0.765625 0.984375 -0.765625 2.78125q0 1.609375 0.75 2.578125q0.765625 0.953125 2.078125 0.953125q1.15625 0 1.8125 -0.625q0.671875 -0.625 0.828125 -1.734375l1.625 0q-0.265625 1.8125 -1.359375 2.796875q-1.09375 0.96875 -2.890625 0.96875q-2.109375 0 -3.3125 -1.328125q-1.203125 -1.328125 -1.203125 -3.609375q0 -2.359375 1.21875 -3.75q1.21875 -1.40625 3.328125 -1.40625zm7.582947 0.21875l0 6.578125q0 0.8125 0.515625 1.359375q0.53125 0.53125 1.453125 0.53125q1.359375 0 2.09375 -0.828125q0.75 -0.84375 0.75 -2.140625l0 -5.5l1.59375 0l0 9.640625l-1.5 0l0 -1.53125l-0.03125 0q-0.53125 0.921875 -1.328125 1.34375q-0.796875 0.421875 -1.8125 0.421875q-1.6875 0 -2.515625 -0.875q-0.8125 -0.875 -0.8125 -2.578125l0 -6.421875l1.59375 0zm13.438232 -0.21875q1.046875 0 1.71875 0.421875q0.671875 0.421875 0.921875 1.21875q0.5 -0.78125 1.28125 -1.203125q0.796875 -0.4375 1.765625 -0.4375q1.625 0 2.40625 0.734375q0.78125 0.734375 0.78125 2.0l0 7.125l-1.578125 0l0 -6.390625q0 -1.046875 -0.453125 -1.5625q-0.4375 -0.515625 -1.421875 -0.515625q-1.1875 0 -1.859375 0.6875q-0.65625 0.6875 -0.65625 1.71875l0 6.0625l-1.59375 0l0 -6.390625q0 -1.046875 -0.4375 -1.5625q-0.4375 -0.515625 -1.359375 -0.515625q-0.765625 0 -1.34375 0.359375q-0.578125 0.359375 -0.90625 1.0q-0.328125 0.625 -0.328125 1.0625l0 6.046875l-1.59375 0l0 -9.640625l1.5 0l0 1.421875l0.03125 0q0.546875 -0.84375 1.3125 -1.234375q0.78125 -0.40625 1.8125 -0.40625zm15.273651 0q2.078125 0 3.21875 1.5q1.15625 1.484375 1.15625 3.828125l0 0.1875l-7.234375 0l0 0.109375q0 1.390625 0.796875 2.234375q0.8125 0.828125 2.21875 0.828125q1.046875 0 1.671875 -0.484375q0.625 -0.5 0.828125 -1.40625l1.5625 0q-0.328125 1.609375 -1.40625 2.453125q-1.078125 0.84375 -2.71875 0.84375q-1.515625 0 -2.578125 -0.6875q-1.046875 -0.6875 -1.546875 -1.90625q-0.5 -1.234375 -0.5 -2.515625q0 -2.140625 1.28125 -3.5625q1.296875 -1.421875 3.25 -1.421875zm-2.859375 4.109375l5.546875 0q-0.078125 -1.171875 -0.859375 -1.9375q-0.765625 -0.78125 -1.9375 -0.78125q-1.09375 0 -1.875 0.734375q-0.765625 0.734375 -0.875 1.984375zm13.536072 -4.109375q1.75 0 2.53125 0.890625q0.796875 0.890625 0.796875 2.546875l0 6.421875l-1.59375 0l0 -6.59375q0 -0.8125 -0.53125 -1.34375q-0.515625 -0.53125 -1.4375 -0.53125q-1.34375 0 -2.09375 0.828125q-0.75 0.8125 -0.75 2.125l0 5.515625l-1.59375 0l0 -9.640625l1.5 0l0 1.53125l0.03125 0q0.53125 -0.90625 1.296875 -1.328125q0.78125 -0.421875 1.84375 -0.421875zm7.9069824 -2.671875l0 2.890625l1.921875 0l0 1.390625l-1.921875 0l0 6.046875q0 0.71875 0.484375 0.765625q0.484375 0.03125 1.0 0.03125l0.4375 0l0 1.40625l-1.296875 0q-1.3125 0 -1.765625 -0.453125q-0.4375 -0.46875 -0.4375 -1.5625l0 -6.234375l-1.65625 0l0 -1.390625l1.65625 0l0 -2.890625l1.578125 0z" fill-rule="nonzero"/><path fill="#000000" d="m305.98132 57.097748q2.203125 0 3.6875 1.15625q1.5 1.140625 1.796875 3.171875l-1.765625 0q-0.296875 -1.359375 -1.296875 -2.09375q-0.984375 -0.734375 -2.4375 -0.734375q-2.125 0 -3.328125 1.5q-1.1875 1.484375 -1.1875 3.890625q0 2.546875 1.171875 4.0625q1.171875 1.515625 3.359375 1.515625q1.625 0 2.671875 -1.03125q1.046875 -1.046875 1.171875 -2.8125l1.765625 0q-0.28125 2.578125 -1.796875 3.953125q-1.5 1.375 -3.96875 1.375q-2.859375 0 -4.515625 -1.890625q-1.640625 -1.890625 -1.640625 -5.046875q0 -3.109375 1.703125 -5.0625q1.703125 -1.953125 4.609375 -1.953125zm9.144806 0.328125l0 5.09375l0.03125 0q0.34375 -0.78125 1.171875 -1.203125q0.828125 -0.4375 1.875 -0.4375q1.75 0 2.53125 0.890625q0.796875 0.890625 0.796875 2.546875l0 6.421875l-1.59375 0l0 -6.59375q0 -0.8125 -0.53125 -1.34375q-0.515625 -0.53125 -1.4375 -0.53125q-1.34375 0 -2.09375 0.828125q-0.75 0.8125 -0.75 2.125l0 5.515625l-1.59375 0l0 -13.3125l1.59375 0zm12.797607 3.453125q2.078125 0 3.21875 1.5q1.15625 1.484375 1.15625 3.828125l0 0.1875l-7.234375 0l0 0.109375q0 1.390625 0.796875 2.234375q0.8125 0.828125 2.21875 0.828125q1.046875 0 1.671875 -0.484375q0.625 -0.5 0.828125 -1.40625l1.5625 0q-0.328125 1.609375 -1.40625 2.453125q-1.078125 0.84375 -2.71875 0.84375q-1.515625 0 -2.578125 -0.6875q-1.046875 -0.6875 -1.546875 -1.90625q-0.5 -1.234375 -0.5 -2.515625q0 -2.140625 1.28125 -3.5625q1.296875 -1.421875 3.25 -1.421875zm-2.859375 4.109375l5.546875 0q-0.078125 -1.171875 -0.859375 -1.9375q-0.765625 -0.78125 -1.9375 -0.78125q-1.09375 0 -1.875 0.734375q-0.765625 0.734375 -0.875 1.984375zm12.895447 -4.109375q1.765625 0 2.859375 0.84375q1.109375 0.828125 1.296875 2.46875l-1.625 0q-0.203125 -0.9375 -0.828125 -1.421875q-0.625 -0.5 -1.5625 -0.5q-1.484375 0 -2.25 0.984375q-0.765625 0.984375 -0.765625 2.78125q0 1.609375 0.75 2.578125q0.765625 0.953125 2.078125 0.953125q1.15625 0 1.8125 -0.625q0.671875 -0.625 0.828125 -1.734375l1.625 0q-0.265625 1.8125 -1.359375 2.796875q-1.09375 0.96875 -2.890625 0.96875q-2.109375 0 -3.3125 -1.328125q-1.203125 -1.328125 -1.203125 -3.609375q0 -2.359375 1.21875 -3.75q1.21875 -1.40625 3.328125 -1.40625zm7.676697 -3.453125l0 7.890625l4.40625 -4.21875l2.125 0l-3.828125 3.5l4.109375 6.140625l-2.015625 0l-3.3125 -5.03125l-1.484375 1.375l0 3.65625l-1.59375 0l0 -13.3125l1.59375 0zm9.68338 0l0 1.9375l-1.59375 0l0 -1.9375l1.59375 0zm0 3.671875l0 9.640625l-1.59375 0l0 -9.640625l1.59375 0zm7.1292114 -0.21875q1.75 0 2.53125 0.890625q0.796875 0.890625 0.796875 2.546875l0 6.421875l-1.59375 0l0 -6.59375q0 -0.8125 -0.53125 -1.34375q-0.515625 -0.53125 -1.4375 -0.53125q-1.34375 0 -2.09375 0.828125q-0.75 0.8125 -0.75 2.125l0 5.515625l-1.59375 0l0 -9.640625l1.5 0l0 1.53125l0.03125 0q0.53125 -0.90625 1.296875 -1.328125q0.78125 -0.421875 1.84375 -0.421875zm9.641327 0q1.0 0 1.734375 0.4375q0.75 0.4375 1.140625 1.15625l0.03125 0l0 -1.375l1.484375 0l0 8.921875q0 2.265625 -1.09375 3.453125q-1.09375 1.1875 -3.375 1.1875q-1.65625 0 -2.796875 -0.734375q-1.125 -0.734375 -1.203125 -2.109375l1.578125 0q0.046875 0.75 0.796875 1.15625q0.75 0.421875 1.703125 0.421875q1.40625 0 2.15625 -0.9375q0.75 -0.921875 0.75 -2.75l0 -0.609375l-0.046875 0q-0.375 0.796875 -1.1875 1.28125q-0.796875 0.46875 -1.828125 0.46875q-1.953125 0 -3.125 -1.34375q-1.171875 -1.359375 -1.171875 -3.53125q0 -2.21875 1.171875 -3.65625q1.171875 -1.4375 3.28125 -1.4375zm-2.78125 4.890625q0 1.71875 0.71875 2.703125q0.734375 0.984375 2.015625 0.984375q1.3125 0 2.078125 -1.015625q0.78125 -1.015625 0.78125 -2.71875q0 -1.546875 -0.71875 -2.5q-0.71875 -0.953125 -2.03125 -0.953125q-1.328125 0 -2.09375 0.953125q-0.75 0.953125 -0.75 2.546875z" fill-rule="nonzero"/><path fill="#000000" d="m313.24023 79.09775q2.21875 0 3.515625 1.078125q1.3125 1.078125 1.390625 3.140625l-1.671875 0q-0.15625 -1.359375 -1.0 -2.03125q-0.828125 -0.6875 -2.3125 -0.6875q-1.421875 0 -2.203125 0.59375q-0.78125 0.578125 -0.78125 1.671875q0 0.78125 0.65625 1.28125q0.671875 0.5 3.625 1.09375q2.125 0.4375 3.171875 1.34375q1.0625 0.90625 1.0625 2.5q0 1.859375 -1.515625 2.921875q-1.515625 1.046875 -3.6875 1.046875q-2.421875 0 -3.953125 -1.203125q-1.53125 -1.21875 -1.546875 -3.484375l1.6875 0q0.015625 1.515625 1.078125 2.359375q1.078125 0.84375 2.796875 0.84375q1.609375 0 2.484375 -0.625q0.890625 -0.625 0.890625 -1.796875q0 -0.953125 -0.8125 -1.515625q-0.8125 -0.578125 -2.9375 -1.0q-2.84375 -0.53125 -3.8125 -1.375q-0.953125 -0.859375 -0.953125 -2.25q0 -1.796875 1.359375 -2.84375q1.359375 -1.0625 3.46875 -1.0625zm11.353943 3.78125q2.078125 0 3.21875 1.5q1.15625 1.484375 1.15625 3.828125l0 0.1875l-7.234375 0l0 0.109375q0 1.390625 0.796875 2.234375q0.8125 0.828125 2.21875 0.828125q1.046875 0 1.671875 -0.484375q0.625 -0.5 0.828125 -1.40625l1.5625 0q-0.328125 1.609375 -1.40625 2.453125q-1.078125 0.84375 -2.71875 0.84375q-1.515625 0 -2.578125 -0.6875q-1.046875 -0.6875 -1.546875 -1.90625q-0.5 -1.234375 -0.5 -2.515625q0 -2.140625 1.28125 -3.5625q1.296875 -1.421875 3.25 -1.421875zm-2.859375 4.109375l5.546875 0q-0.078125 -1.171875 -0.859375 -1.9375q-0.765625 -0.78125 -1.9375 -0.78125q-1.09375 0 -1.875 0.734375q-0.765625 0.734375 -0.875 1.984375zm13.676697 -4.125q0.046875 0 0.09375 0q0.046875 0 0.125 0.015625l0 1.671875q-1.796875 0 -2.65625 0.953125q-0.84375 0.9375 -0.84375 2.921875l0 4.3125l-1.578125 0l0 -9.640625l1.484375 0l0 2.03125l0.046875 0q0.546875 -1.15625 1.359375 -1.703125q0.828125 -0.5625 1.96875 -0.5625zm2.353302 0.234375l2.703125 8.03125l0.03125 0l2.640625 -8.03125l1.65625 0l-3.53125 9.640625l-1.6875 0l-3.578125 -9.640625l1.765625 0zm10.171875 -3.671875l0 1.9375l-1.59375 0l0 -1.9375l1.59375 0zm0 3.671875l0 9.640625l-1.59375 0l0 -9.640625l1.59375 0zm6.488556 -0.21875q1.765625 0 2.859375 0.84375q1.109375 0.828125 1.296875 2.46875l-1.625 0q-0.203125 -0.9375 -0.828125 -1.421875q-0.625 -0.5 -1.5625 -0.5q-1.484375 0 -2.25 0.984375q-0.765625 0.984375 -0.765625 2.78125q0 1.609375 0.75 2.578125q0.765625 0.953125 2.078125 0.953125q1.15625 0 1.8125 -0.625q0.671875 -0.625 0.828125 -1.734375l1.625 0q-0.265625 1.8125 -1.359375 2.796875q-1.09375 0.96875 -2.890625 0.96875q-2.109375 0 -3.3125 -1.328125q-1.203125 -1.328125 -1.203125 -3.609375q0 -2.359375 1.21875 -3.75q1.21875 -1.40625 3.328125 -1.40625zm10.004822 0q2.078125 0 3.21875 1.5q1.15625 1.484375 1.15625 3.828125l0 0.1875l-7.234375 0l0 0.109375q0 1.390625 0.796875 2.234375q0.8125 0.828125 2.21875 0.828125q1.046875 0 1.671875 -0.484375q0.625 -0.5 0.828125 -1.40625l1.5625 0q-0.328125 1.609375 -1.40625 2.453125q-1.078125 0.84375 -2.71875 0.84375q-1.515625 0 -2.578125 -0.6875q-1.046875 -0.6875 -1.546875 -1.90625q-0.5 -1.234375 -0.5 -2.515625q0 -2.140625 1.28125 -3.5625q1.296875 -1.421875 3.25 -1.421875zm-2.859375 4.109375l5.546875 0q-0.078125 -1.171875 -0.859375 -1.9375q-0.765625 -0.78125 -1.9375 -0.78125q-1.09375 0 -1.875 0.734375q-0.765625 0.734375 -0.875 1.984375z" fill-rule="nonzero"/><path fill="#000000" fill-opacity="0.0" d="m519.4562 1.0204761l154.92914 0l0 125.5748l-154.92914 0z" fill-rule="evenodd"/><path stroke="#000000" stroke-width="2.0" stroke-linejoin="round" stroke-linecap="butt" d="m519.4562 1.0204761l154.92914 0l0 125.5748l-154.92914 0z" fill-rule="evenodd"/><path fill="#000000" d="m585.27734 46.41538l0 5.71875l7.015625 0l0 -5.71875l1.78125 0l0 13.3125l-1.78125 0l0 -6.109375l-7.015625 0l0 6.109375l-1.765625 0l0 -13.3125l1.765625 0zm14.176086 0l4.1875 11.1875l4.21875 -11.1875l2.421875 0l0 13.3125l-1.671875 0l0 -11.09375l-0.03125 0l-4.171875 11.09375l-1.5 0l-4.171875 -11.09375l-0.03125 0l0 11.09375l-1.671875 0l0 -13.3125l2.421875 0z" fill-rule="nonzero"/><path fill="#000000" d="m540.0648 68.415375q1.828125 0 2.90625 1.0q1.09375 0.984375 1.09375 2.9375q0 1.953125 -1.09375 2.9375q-1.078125 0.984375 -2.78125 0.984375l-4.28125 0l0 5.453125l-1.765625 0l0 -13.3125l5.921875 0zm-0.484375 6.375q1.265625 0 1.984375 -0.59375q0.734375 -0.609375 0.734375 -1.84375q0 -1.234375 -0.71875 -1.84375q-0.71875 -0.609375 -2.109375 -0.609375l-3.5625 0l0 4.890625l3.671875 0zm9.782288 -2.921875q1.96875 0 2.78125 0.703125q0.828125 0.6875 0.828125 1.875q0 5.015625 0 5.5625q0 0.546875 0.5 0.546875q0.109375 0 0.234375 -0.03125q0.140625 -0.03125 0.25 -0.0625l0 1.234375q-0.21875 0.125 -0.5 0.1875q-0.28125 0.078125 -0.625 0.078125q-0.65625 0 -1.0 -0.375q-0.34375 -0.375 -0.34375 -1.125q-0.640625 0.75 -1.5 1.125q-0.84375 0.375 -1.90625 0.375q-1.484375 0 -2.34375 -0.703125q-0.84375 -0.71875 -0.84375 -2.015625q0 -1.296875 0.828125 -2.046875q0.828125 -0.765625 3.90625 -1.15625q1.03125 -0.140625 1.390625 -0.390625q0.375 -0.265625 0.375 -0.796875q0 -0.796875 -0.515625 -1.1875q-0.5 -0.40625 -1.625 -0.40625q-1.171875 0 -1.765625 0.453125q-0.59375 0.4375 -0.640625 1.375l-1.578125 0q0.078125 -1.609375 1.125 -2.40625q1.0625 -0.8125 2.96875 -0.8125zm-2.796875 7.265625q0 0.671875 0.484375 1.046875q0.5 0.375 1.390625 0.375q1.34375 0 2.140625 -0.65625q0.796875 -0.671875 0.796875 -1.5l0 -1.65625q-0.390625 0.28125 -1.03125 0.390625q-0.640625 0.09375 -1.703125 0.234375q-1.046875 0.15625 -1.5625 0.578125q-0.515625 0.421875 -0.515625 1.1875zm12.082947 -7.265625q1.9375 0 2.890625 0.75q0.953125 0.75 1.03125 2.265625l-1.578125 0l0 -0.03125q-0.0625 -0.765625 -0.671875 -1.171875q-0.609375 -0.421875 -1.5625 -0.421875q-0.953125 0 -1.515625 0.328125q-0.546875 0.3125 -0.546875 0.90625q0 0.515625 0.484375 0.859375q0.5 0.328125 1.484375 0.546875l1.484375 0.328125q1.40625 0.3125 2.125 0.953125q0.734375 0.640625 0.734375 1.734375q0 1.421875 -1.109375 2.234375q-1.09375 0.8125 -2.984375 0.8125q-1.859375 0 -2.953125 -0.828125q-1.078125 -0.84375 -1.140625 -2.453125l1.59375 0q0.03125 0.90625 0.703125 1.390625q0.6875 0.484375 1.875 0.484375q1.15625 0 1.75 -0.359375q0.59375 -0.375 0.59375 -1.078125q0 -0.65625 -0.59375 -1.03125q-0.59375 -0.375 -2.40625 -0.734375q-1.828125 -0.359375 -2.578125 -1.015625q-0.734375 -0.65625 -0.734375 -1.734375q0 -1.265625 1.03125 -2.0q1.03125 -0.734375 2.59375 -0.734375zm9.328125 0q1.9375 0 2.890625 0.75q0.953125 0.75 1.03125 2.265625l-1.578125 0l0 -0.03125q-0.0625 -0.765625 -0.671875 -1.171875q-0.609375 -0.421875 -1.5625 -0.421875q-0.953125 0 -1.515625 0.328125q-0.546875 0.3125 -0.546875 0.90625q0 0.515625 0.484375 0.859375q0.5 0.328125 1.484375 0.546875l1.484375 0.328125q1.40625 0.3125 2.125 0.953125q0.734375 0.640625 0.734375 1.734375q0 1.421875 -1.109375 2.234375q-1.09375 0.8125 -2.984375 0.8125q-1.859375 0 -2.953125 -0.828125q-1.078125 -0.84375 -1.140625 -2.453125l1.59375 0q0.03125 0.90625 0.703125 1.390625q0.6875 0.484375 1.875 0.484375q1.15625 0 1.75 -0.359375q0.59375 -0.375 0.59375 -1.078125q0 -0.65625 -0.59375 -1.03125q-0.59375 -0.375 -2.40625 -0.734375q-1.828125 -0.359375 -2.578125 -1.015625q-0.734375 -0.65625 -0.734375 -1.734375q0 -1.265625 1.03125 -2.0q1.03125 -0.734375 2.59375 -0.734375zm10.875 0q2.0625 0 3.25 1.421875q1.1875 1.421875 1.1875 3.640625q0 2.25 -1.1875 3.640625q-1.171875 1.390625 -3.203125 1.390625q-0.90625 0 -1.765625 -0.375q-0.859375 -0.375 -1.359375 -1.140625l-0.046875 0l0 4.984375l-1.578125 0l0 -13.34375l1.578125 0l0 1.3125l0.046875 0q0.375 -0.75 1.171875 -1.140625q0.8125 -0.390625 1.90625 -0.390625zm-3.171875 5.03125q0 1.671875 0.8125 2.671875q0.8125 0.984375 2.234375 0.984375q1.375 0 2.125 -0.984375q0.75 -0.984375 0.75 -2.75q0 -1.546875 -0.796875 -2.546875q-0.796875 -1.015625 -2.1875 -1.015625q-1.40625 0 -2.171875 1.015625q-0.765625 1.015625 -0.765625 2.625zm13.637085 -5.03125q2.1875 0 3.421875 1.40625q1.25 1.40625 1.25 3.640625q0 2.25 -1.28125 3.65625q-1.265625 1.390625 -3.390625 1.390625q-2.09375 0 -3.390625 -1.375q-1.296875 -1.375 -1.296875 -3.671875q0 -2.296875 1.265625 -3.671875q1.265625 -1.375 3.421875 -1.375zm-3.015625 5.046875q0 1.65625 0.84375 2.65625q0.859375 0.984375 2.171875 0.984375q1.296875 0 2.140625 -0.984375q0.859375 -1.0 0.859375 -2.65625q0 -1.640625 -0.84375 -2.640625q-0.84375 -1.015625 -2.171875 -1.015625q-1.28125 0 -2.140625 0.984375q-0.859375 0.984375 -0.859375 2.671875zm14.369019 -5.0625q0.046875 0 0.09375 0q0.046875 0 0.125 0.015625l0 1.671875q-1.796875 0 -2.65625 0.953125q-0.84375 0.9375 -0.84375 2.921875l0 4.3125l-1.578125 0l0 -9.640625l1.484375 0l0 2.03125l0.046875 0q0.546875 -1.15625 1.359375 -1.703125q0.828125 -0.5625 1.96875 -0.5625zm3.694397 -2.65625l0 2.890625l1.921875 0l0 1.390625l-1.921875 0l0 6.046875q0 0.71875 0.484375 0.765625q0.484375 0.03125 1.0 0.03125l0.4375 0l0 1.40625l-1.296875 0q-1.3125 0 -1.765625 -0.453125q-0.4375 -0.46875 -0.4375 -1.5625l0 -6.234375l-1.65625 0l0 -1.390625l1.65625 0l0 -2.890625l1.578125 0zm14.762085 -1.109375q1.9375 0 3.375 0.90625q1.4375 0.890625 2.21875 2.515625q0.78125 1.625 0.78125 3.5625q0 1.953125 -0.78125 3.578125q-0.765625 1.609375 -2.21875 2.5q-1.453125 0.890625 -3.375 0.890625q-1.921875 0 -3.375 -0.890625q-1.4375 -0.890625 -2.234375 -2.5q-0.78125 -1.625 -0.78125 -3.578125q0 -3.03125 1.734375 -5.0q1.75 -1.984375 4.65625 -1.984375zm-4.609375 6.984375q0 1.484375 0.53125 2.765625q0.546875 1.28125 1.59375 2.0q1.0625 0.71875 2.484375 0.71875q2.140625 0 3.375 -1.546875q1.234375 -1.546875 1.234375 -3.9375q0 -2.375 -1.234375 -3.921875q-1.21875 -1.5625 -3.40625 -1.5625q-2.140625 0 -3.359375 1.5625q-1.21875 1.5625 -1.21875 3.921875zm16.190002 -6.8125q0.203125 0 0.515625 0.046875q0.328125 0.046875 0.515625 0.109375l0 1.375q-0.171875 -0.0625 -0.4375 -0.09375q-0.265625 -0.03125 -0.453125 -0.03125q-0.65625 0 -0.9375 0.265625q-0.265625 0.265625 -0.265625 0.765625l0 1.390625l3.65625 0l0 -1.515625q0 -1.0625 0.65625 -1.6875q0.671875 -0.625 1.984375 -0.625q0.203125 0 0.515625 0.046875q0.3125 0.046875 0.53125 0.109375l0 1.375q-0.1875 -0.0625 -0.453125 -0.09375q-0.25 -0.03125 -0.4375 -0.03125q-0.65625 0 -0.9375 0.265625q-0.28125 0.265625 -0.28125 0.765625l0 1.390625l1.875 0l0 1.390625l-1.875 0l0 8.25l-1.578125 0l0 -8.25l-3.65625 0l0 8.25l-1.59375 0l0 -8.25l-1.609375 0l0 -1.390625l1.609375 0l0 -1.515625q0 -1.0625 0.671875 -1.6875q0.671875 -0.625 1.984375 -0.625zm9.375 0.15625l0 1.9375l-1.59375 0l0 -1.9375l1.59375 0zm0 3.671875l0 9.640625l-1.59375 0l0 -9.640625l1.59375 0zm6.246887 -0.21875q1.765625 0 2.859375 0.84375q1.109375 0.828125 1.296875 2.46875l-1.625 0q-0.203125 -0.9375 -0.828125 -1.421875q-0.625 -0.5 -1.5625 -0.5q-1.484375 0 -2.25 0.984375q-0.765625 0.984375 -0.765625 2.78125q0 1.609375 0.75 2.578125q0.765625 0.953125 2.078125 0.953125q1.15625 0 1.8125 -0.625q0.671875 -0.625 0.828125 -1.734375l1.625 0q-0.265625 1.8125 -1.359375 2.796875q-1.09375 0.96875 -2.890625 0.96875q-2.109375 0 -3.3125 -1.328125q-1.203125 -1.328125 -1.203125 -3.609375q0 -2.359375 1.21875 -3.75q1.21875 -1.40625 3.328125 -1.40625zm10.004822 0q2.078125 0 3.21875 1.5q1.15625 1.484375 1.15625 3.828125l0 0.1875l-7.234375 0l0 0.109375q0 1.390625 0.796875 2.234375q0.8125 0.828125 2.21875 0.828125q1.046875 0 1.671875 -0.484375q0.625 -0.5 0.828125 -1.40625l1.5625 0q-0.328125 1.609375 -1.40625 2.453125q-1.078125 0.84375 -2.71875 0.84375q-1.515625 0 -2.578125 -0.6875q-1.046875 -0.6875 -1.546875 -1.90625q-0.5 -1.234375 -0.5 -2.515625q0 -2.140625 1.28125 -3.5625q1.296875 -1.421875 3.25 -1.421875zm-2.859375 4.109375l5.546875 0q-0.078125 -1.171875 -0.859375 -1.9375q-0.765625 -0.78125 -1.9375 -0.78125q-1.09375 0 -1.875 0.734375q-0.765625 0.734375 -0.875 1.984375z" fill-rule="nonzero"/><path fill="#000000" fill-opacity="0.0" d="m1.0335966 1.0309738l154.92914 0l0 125.5748l-154.92914 0z" fill-rule="evenodd"/><path stroke="#000000" stroke-width="2.0" stroke-linejoin="round" stroke-linecap="butt" d="m1.0335966 1.0309738l154.92914 0l0 125.5748l-154.92914 0z" fill-rule="evenodd"/><path fill="#000000" d="m61.930386 46.425877l3.9843788 6.328125l3.890625 -6.328125l2.015625 0l-5.09375 7.859375l0 5.453125l-1.765625 0l0 -5.453125l-5.156254 -7.859375l2.125 0zm13.350025 3.453125q2.1875 0 3.421875 1.40625q1.25 1.40625 1.25 3.640625q0 2.25 -1.28125 3.65625q-1.265625 1.390625 -3.390625 1.390625q-2.09375 0 -3.390625 -1.375q-1.296875 -1.375 -1.296875 -3.671875q0 -2.296875 1.265625 -3.671875q1.265625 -1.375 3.421875 -1.375zm-3.015625 5.046875q0 1.65625 0.84375 2.65625q0.859375 0.984375 2.171875 0.984375q1.296875 0 2.140625 -0.984375q0.859375 -1.0 0.859375 -2.65625q0 -1.640625 -0.84375 -2.640625q-0.84375 -1.015625 -2.171875 -1.015625q-1.28125 0 -2.140625 0.984375q-0.859375 0.984375 -0.859375 2.671875zm11.150269 -4.828125l0 6.578125q0 0.8125 0.515625 1.359375q0.53125 0.53125 1.453125 0.53125q1.359375 0 2.09375 -0.828125q0.75 -0.84375 0.75 -2.140625l0 -5.5l1.59375 0l0 9.640625l-1.5 0l0 -1.53125l-0.03125 0q-0.53125 0.921875 -1.328125 1.34375q-0.796875 0.421875 -1.8125 0.421875q-1.6875 0 -2.515625 -0.875q-0.8125 -0.875 -0.8125 -2.578125l0 -6.421875l1.59375 0zm13.594467 -0.234375q0.046875 0 0.09375 0q0.046875 0 0.125 0.015625l0 1.671875q-1.796875 0 -2.65625 0.953125q-0.84375 0.9375 -0.84375 2.921875l0 4.3125l-1.578125 0l0 -9.640625l1.484375 0l0 2.03125l0.046875 0q0.546875 -1.15625 1.359375 -1.703125q0.828125 -0.5625 1.96875 -0.5625z" fill-rule="nonzero"/><path fill="#000000" d="m53.312183 71.879q1.9375 0 2.890625 0.75q0.953125 0.75 1.03125 2.265625l-1.578125 0l0 -0.03125q-0.0625 -0.765625 -0.671875 -1.171875q-0.609375 -0.421875 -1.5625 -0.421875q-0.953125 0 -1.515625 0.328125q-0.546875 0.3125 -0.546875 0.90625q0 0.515625 0.484375 0.859375q0.5 0.328125 1.484375 0.546875l1.484375 0.328125q1.40625 0.3125 2.125 0.953125q0.734375 0.640625 0.734375 1.734375q0 1.421875 -1.109375 2.234375q-1.09375 0.8125 -2.984375 0.8125q-1.859375 0 -2.953125 -0.828125q-1.078125 -0.84375 -1.140625 -2.453125l1.59375 0q0.03125 0.90625 0.703125 1.390625q0.6875 0.484375 1.875 0.484375q1.15625 0 1.75 -0.359375q0.59375 -0.375 0.59375 -1.078125q0 -0.65625 -0.59375 -1.03125q-0.59375 -0.375 -2.40625 -0.734375q-1.828125 -0.359375 -2.578125 -1.015625q-0.734375 -0.65625 -0.734375 -1.734375q0 -1.265625 1.03125 -2.0q1.03125 -0.734375 2.59375 -0.734375zm10.125 0q2.0781288 0 3.2187538 1.5q1.15625 1.484375 1.15625 3.828125l0 0.1875l-7.234379 0l0 0.109375q0 1.390625 0.796875 2.234375q0.8125 0.828125 2.21875 0.828125q1.0468788 0 1.6718788 -0.484375q0.625 -0.5 0.828125 -1.40625l1.5625 0q-0.328125 1.609375 -1.40625 2.453125q-1.078125 0.84375 -2.7187538 0.84375q-1.515625 0 -2.578125 -0.6875q-1.046875 -0.6875 -1.546875 -1.90625q-0.5 -1.234375 -0.5 -2.515625q0 -2.140625 1.28125 -3.5625q1.296875 -1.421875 3.25 -1.421875zm-2.859375 4.109375l5.546879 0q-0.078125 -1.171875 -0.859375 -1.9375q-0.765625 -0.78125 -1.9375038 -0.78125q-1.09375 0 -1.875 0.734375q-0.765625 0.734375 -0.875 1.984375zm13.676701 -4.125q0.046875 0 0.09375 0q0.046875 0 0.125 0.015625l0 1.671875q-1.796875 0 -2.65625 0.953125q-0.84375 0.9375 -0.84375 2.921875l0 4.3125l-1.578125 0l0 -9.640625l1.484375 0l0 2.03125l0.046875 0q0.546875 -1.15625 1.359375 -1.703125q0.828125 -0.5625 1.96875 -0.5625zm2.353302 0.234375l2.703125 8.03125l0.03125 0l2.640625 -8.03125l1.65625 0l-3.53125 9.640625l-1.6875 0l-3.578125 -9.640625l1.765625 0zm10.171875 -3.671875l0 1.9375l-1.59375 0l0 -1.9375l1.59375 0zm0 3.671875l0 9.640625l-1.59375 0l0 -9.640625l1.59375 0zm6.488571 -0.21875q1.765625 0 2.859375 0.84375q1.109375 0.828125 1.296875 2.46875l-1.625 0q-0.203125 -0.9375 -0.828125 -1.421875q-0.625 -0.5 -1.5625 -0.5q-1.484375 0 -2.25 0.984375q-0.765625 0.984375 -0.765625 2.78125q0 1.609375 0.75 2.578125q0.765625 0.953125 2.078125 0.953125q1.15625 0 1.8125 -0.625q0.671875 -0.625 0.828125 -1.734375l1.625 0q-0.265625 1.8125 -1.359375 2.796875q-1.09375 0.96875 -2.890625 0.96875q-2.109375 0 -3.3125 -1.328125q-1.203125 -1.328125 -1.203125 -3.609375q0 -2.359375 1.21875 -3.75q1.21875 -1.40625 3.328125 -1.40625zm10.004822 0q2.078125 0 3.21875 1.5q1.15625 1.484375 1.15625 3.828125l0 0.1875l-7.234375 0l0 0.109375q0 1.390625 0.796875 2.234375q0.8125 0.828125 2.21875 0.828125q1.046875 0 1.671875 -0.484375q0.625 -0.5 0.828125 -1.40625l1.5625 0q-0.328125 1.609375 -1.40625 2.453125q-1.078125 0.84375 -2.71875 0.84375q-1.515625 0 -2.578125 -0.6875q-1.046875 -0.6875 -1.546875 -1.90625q-0.5 -1.234375 -0.5 -2.515625q0 -2.140625 1.28125 -3.5625q1.296875 -1.421875 3.25 -1.421875zm-2.859375 4.109375l5.546875 0q-0.078125 -1.171875 -0.859375 -1.9375q-0.765625 -0.78125 -1.9375 -0.78125q-1.09375 0 -1.875 0.734375q-0.765625 0.734375 -0.875 1.984375z" fill-rule="nonzero"/><path fill="#000000" fill-opacity="0.0" d="m156.41579 36.7801l103.71654 0" fill-rule="evenodd"/><path stroke="#000000" stroke-width="2.0" stroke-linejoin="round" stroke-linecap="butt" d="m156.41579 36.7801l91.71654 0" fill-rule="evenodd"/><path fill="#000000" stroke="#000000" stroke-width="2.0" stroke-linecap="butt" d="m248.13232 40.083565l9.076202 -3.303463l-9.076202 -3.3034668z" fill-rule="evenodd"/><path fill="#000000" fill-opacity="0.0" d="m415.73862 36.7801l103.71652 0" fill-rule="evenodd"/><path stroke="#000000" stroke-width="2.0" stroke-linejoin="round" stroke-linecap="butt" d="m415.7386 36.7801l91.71655 0" fill-rule="evenodd"/><path fill="#000000" stroke="#000000" stroke-width="2.0" stroke-linecap="butt" d="m507.45514 40.083565l9.076172 -3.303463l-9.076172 -3.3034668z" fill-rule="evenodd"/><path fill="#000000" fill-opacity="0.0" d="m260.8331 93.48351l-104.40944 0.1889801" fill-rule="evenodd"/><path stroke="#000000" stroke-width="2.0" stroke-linejoin="round" stroke-linecap="butt" d="m260.8331 93.48351l-92.409454 0.16725922" fill-rule="evenodd"/><path fill="#000000" stroke="#000000" stroke-width="2.0" stroke-linecap="butt" d="m168.41766 90.34731l-9.070206 3.3198853l9.082153 3.287033z" fill-rule="evenodd"/><path fill="#000000" fill-opacity="0.0" d="m519.80164 90.12131l-104.409485 0.1889801" fill-rule="evenodd"/><path stroke="#000000" stroke-width="2.0" stroke-linejoin="round" stroke-linecap="butt" d="m519.8016 90.12131l-92.409424 0.16725922" fill-rule="evenodd"/><path fill="#000000" stroke="#000000" stroke-width="2.0" stroke-linecap="butt" d="m427.38614 86.98511l-9.07019 3.3198853l9.082153 3.287033z" fill-rule="evenodd"/><path fill="#000000" d="m192.96172 16.591421l0 0c0 -8.593029 6.9660187 -15.559055 15.5590515 -15.559055l0 0c4.126526 0 8.08403 1.6392529 11.001907 4.5571423c2.9178925 2.9178882 4.557144 6.8753953 4.557144 11.001913l0 0c0 8.593029 -6.9660187 15.559053 -15.5590515 15.559053l0 0c-8.593033 0 -15.5590515 -6.9660244 -15.5590515 -15.559053z" fill-rule="evenodd"/><path fill="#000000" fill-opacity="0.0" d="m192.56538 1.0320706l32.12599 0l0 31.11811l-32.12599 0z" fill-rule="evenodd"/><path fill="#ffffff" d="m210.08115 10.276749l0 13.234375l-1.578125 0l0 -9.46875l-3.4375 0l0 -1.28125l0.046875 0q1.6875 0 2.59375 -0.59375q0.921875 -0.609375 1.15625 -1.890625l1.21875 0z" fill-rule="nonzero"/><path fill="#000000" d="m451.9302 16.591421l0 0c0 -8.593029 6.966034 -15.559055 15.5590515 -15.559055l0 0c4.126526 0 8.084045 1.6392529 11.001923 4.5571423c2.9179077 2.9178882 4.5571594 6.8753953 4.5571594 11.001913l0 0c0 8.593029 -6.966034 15.559053 -15.559082 15.559053l0 0c-8.593018 0 -15.5590515 -6.9660244 -15.5590515 -15.559053z" fill-rule="evenodd"/><path fill="#000000" fill-opacity="0.0" d="m451.5339 1.0320706l32.125977 0l0 31.11811l-32.125977 0z" fill-rule="evenodd"/><path fill="#ffffff" d="m467.48715 10.276749q1.828125 0 2.984375 1.046875q1.15625 1.03125 1.15625 2.765625q0 1.375 -0.765625 2.484375q-0.765625 1.09375 -3.25 2.515625q-1.5 0.875 -2.140625 1.578125q-0.625 0.6875 -0.765625 1.4375l6.78125 0l0 1.40625l-8.625 0q0.125 -1.65625 0.84375 -2.890625q0.71875 -1.234375 2.671875 -2.40625q2.3125 -1.40625 2.9375 -2.203125q0.625 -0.8125 0.625 -1.921875q0 -1.046875 -0.734375 -1.71875q-0.71875 -0.6875 -1.8125 -0.6875q-1.1875 0 -1.890625 0.890625q-0.6875 0.890625 -0.6875 2.265625l0 0.125l-1.59375 0l0 -0.328125q0 -1.96875 1.15625 -3.15625q1.171875 -1.203125 3.109375 -1.203125z" fill-rule="nonzero"/><path fill="#000000" d="m451.9302 70.937874l0 0c0 -8.593025 6.966034 -15.5590515 15.5590515 -15.5590515l0 0c4.126526 0 8.084045 1.6392517 11.001923 4.5571404c2.9179077 2.9178886 4.5571594 6.8754005 4.5571594 11.001911l0 0c0 8.593033 -6.966034 15.559059 -15.559082 15.559059l0 0c-8.593018 0 -15.5590515 -6.9660263 -15.5590515 -15.559059z" fill-rule="evenodd"/><path fill="#000000" fill-opacity="0.0" d="m451.5339 55.37853l32.125977 0l0 31.118107l-32.125977 0z" fill-rule="evenodd"/><path fill="#ffffff" d="m467.3309 64.62321q1.90625 0 2.96875 0.953125q1.0625 0.9375 1.0625 2.59375q0 0.796875 -0.484375 1.5q-0.46875 0.703125 -1.359375 1.140625l0 0.03125q1.171875 0.265625 1.78125 1.109375q0.609375 0.828125 0.609375 2.09375q0 1.859375 -1.265625 2.953125q-1.265625 1.09375 -3.28125 1.09375q-1.984375 0 -3.203125 -1.109375q-1.203125 -1.109375 -1.203125 -3.15625l0 -0.0625l1.59375 0q0.0625 1.421875 0.8125 2.171875q0.75 0.75 2.0 0.75q1.234375 0 2.046875 -0.71875q0.828125 -0.71875 0.828125 -1.84375q0 -1.171875 -0.78125 -1.84375q-0.765625 -0.6875 -2.09375 -0.6875q-0.203125 0 -0.4375 0.015625q-0.21875 0.015625 -0.46875 0.03125l0 -1.328125q0.21875 0.015625 0.59375 0.015625q0.921875 0 1.46875 -0.296875q0.546875 -0.296875 0.84375 -0.75q0.3125 -0.46875 0.3125 -1.125q0 -0.984375 -0.640625 -1.546875q-0.625 -0.578125 -1.703125 -0.578125q-1.15625 0 -1.828125 0.765625q-0.65625 0.75 -0.6875 2.109375l-1.578125 0q0.09375 -2.0625 1.15625 -3.171875q1.078125 -1.109375 2.9375 -1.109375z" fill-rule="nonzero"/><path fill="#000000" d="m192.71893 74.562546l0 0c0 -8.593025 6.9660187 -15.5590515 15.5590515 -15.5590515l0 0c4.126526 0 8.08403 1.6392517 11.001907 4.5571404c2.9178925 2.9178886 4.557144 6.8754005 4.557144 11.001911l0 0c0 8.593033 -6.9660187 15.559059 -15.5590515 15.559059l0 0c-8.593033 0 -15.5590515 -6.9660263 -15.5590515 -15.559059z" fill-rule="evenodd"/><path fill="#000000" fill-opacity="0.0" d="m192.3226 59.0032l32.12599 0l0 31.118107l-32.12599 0z" fill-rule="evenodd"/><path fill="#ffffff" d="m211.01024 68.24788l0 8.734375l1.796875 0l0 1.40625l-1.796875 0l0 3.09375l-1.484375 0l0 -3.09375l-5.8125 0l0 -1.53125l6.03125 -8.609375l1.265625 0zm-1.53125 2.265625l-4.390625 6.46875l4.4375 0l0 -6.46875l-0.046875 0z" fill-rule="nonzero"/></g></svg>